<svg width="21" height="17" fill="none" xmlns="http://www.w3.org/2000/svg"><path d="M20.5 8.626c0 3.456-2.813 6.26-6.286 6.26-3.474 0-6.286-2.804-6.286-6.26s2.812-6.26 6.286-6.26c3.473 0 6.286 2.804 6.286 6.26z" stroke="#CE0C36"/><path class="header-rect" fill="#CE0C36" d="M7.337 0l8.173 4.932L8.174 17 0 12.068z"/><path d="M9.58 3.042L12.385.665l.665 3.613-3.47-1.236zM6.15 9H3.353v-.39L4.83 6.97c.219-.248.37-.45.451-.604.084-.156.126-.317.126-.483a.765.765 0 00-.202-.548.707.707 0 00-.539-.214c-.27 0-.48.077-.63.232-.148.152-.223.365-.223.638h-.542c0-.392.126-.71.378-.952.254-.242.593-.363 1.017-.363.396 0 .71.104.94.313.23.207.346.484.346.83 0 .42-.267.92-.803 1.5L4.008 8.557h2.141V9zm2.862-1.433h.592v.443h-.592V9h-.545v-.99H6.524v-.32l1.91-2.956h.578v2.833zm-1.872 0h1.327V5.476l-.065.117L7.14 7.567zm10.405-.093l-2.06 4.621h-.664l2.054-4.457h-2.693v-.52h3.363v.356z" fill="#CE0C36"/><path d="M11 11l3-6" stroke="#CE0C36"/></svg>