<svg width="21" height="17" viewBox="0 0 21 17" fill="none" xmlns="http://www.w3.org/2000/svg">
<path d="M20.4999 8.62577C20.4999 12.0816 17.6873 14.8863 14.2138 14.8863C10.7403 14.8863 7.92773 12.0816 7.92773 8.62577C7.92773 5.16995 10.7403 2.36523 14.2138 2.36523C17.6873 2.36523 20.4999 5.16995 20.4999 8.62577Z" stroke="#CE0C36"/>
<rect class="header-rect" width="9.54646" height="14.1233" transform="matrix(0.856211 0.516626 -0.519484 0.85448 7.33691 0)" fill="#CE0C36"/>
<path d="M9.57915 3.04212L12.3864 0.665185L13.0511 4.27792L9.57915 3.04212Z" fill="#CE0C36"/>
<path d="M6.14941 9H3.35449V8.61035L4.83105 6.96973C5.0498 6.72168 5.2002 6.52051 5.28223 6.36621C5.36621 6.20996 5.4082 6.04883 5.4082 5.88281C5.4082 5.66016 5.34082 5.47754 5.20605 5.33496C5.07129 5.19238 4.8916 5.12109 4.66699 5.12109C4.39746 5.12109 4.1875 5.19824 4.03711 5.35254C3.88867 5.50488 3.81445 5.71777 3.81445 5.99121H3.27246C3.27246 5.59863 3.39844 5.28125 3.65039 5.03906C3.9043 4.79688 4.24316 4.67578 4.66699 4.67578C5.06348 4.67578 5.37695 4.78027 5.60742 4.98926C5.83789 5.19629 5.95312 5.47266 5.95312 5.81836C5.95312 6.23828 5.68555 6.73828 5.15039 7.31836L4.00781 8.55762H6.14941V9ZM9.01172 7.56738H9.60352V8.00977H9.01172V9H8.4668V8.00977H6.52441V7.69043L8.43457 4.73438H9.01172V7.56738ZM7.13965 7.56738H8.4668V5.47559L8.40234 5.59277L7.13965 7.56738Z" fill="#CE0C36"/>
<path d="M17.5454 7.47412L15.4844 12.0952H14.8213L16.8755 7.63818H14.1821V7.11865H17.5454V7.47412Z" fill="#CE0C36"/>
<path d="M11 11L14 5" stroke="#CE0C36"/>
</svg>
