<svg width="33" height="22" fill="none" xmlns="http://www.w3.org/2000/svg"><path d="M22.661 8.297c-.851 1.087-1.78 2.703-2.787 4.876a28.282 28.282 0 00-1.883 5.405l-.232.954c-.078.265-.181.398-.31.398-.18.026-.336-.106-.439-.371-.258-.636.026-2.173.852-4.637.438-1.113.877-2.094 1.342-2.889 1.445-2.543 2.735-4.16 3.845-4.822.67-.345 1.264-.45 1.78-.292a.61.61 0 01.335.186c.104.08.155.159.13.238 0 .053-.078.08-.259.08a5.96 5.96 0 00-.541-.08c-.594-.132-1.213.186-1.833.954z" fill="#fff"/><path d="M20.96 4.906c-3.304-.716-6.787-1.06-10.426-1.06-1.858 0-3.406.318-4.645.927-1.445.716-2.09 1.722-1.935 3.02.051.425.18.743.413 1.034-.078.027-.13.08-.207.106a2.48 2.48 0 01-.49-1.245c-.18-1.59.542-2.809 2.22-3.683 1.315-.663 2.89-1.007 4.721-1.007 3.175 0 6.761.477 10.684 1.43.567-.609 1.11-1.006 1.651-1.192.284-.106.439-.106.465 0 .026.08-.052.16-.258.239-.439.159-.852.503-1.239 1.06 1.961.238 7.226.503 8.877-.795.929-.716 1.213-1.723.903-2.359-.232-.477-.903-.795-1.213-.238-.232.37.31.795.465.344-.13-.026 0 .053-.155.053-.258.027-.284-.212-.18-.37.103-.133.31-.186.49.052.155.186.077.477-.078.61-.49.424-1.11-.345-.851-.848.335-.636 1.187-.583 1.625-.133.904.954.646 2.385-.567 3.286-2.116 1.59-7.38 1.06-9.703.822-1.084 1.536-2.348 3.577-3.793 6.12-.207.424-.439.848-.671 1.299-1.626 3.338-3.587 5.75-5.91 7.26-1.651 1.086-3.38 1.643-5.186 1.696a6.242 6.242 0 01-3.278-.742c-1.212-.662-2.012-1.67-2.4-3.074-.774-2.782 0-5.22 2.375-7.313.412-.37.954-.742 1.625-1.14.104-.026.18-.079.258-.132a12.074 12.074 0 015.677-1.219c.723.027 1.394.16 2.039.477.697.345 1.213.795 1.548 1.352 1.136.053 2.168.344 3.123.927l-.13.185c-.773-.476-1.728-.768-2.89-.874-.077 0-.154-.026-.258-.026h-.051c-2.348 0-4.593.688-6.684 2.093a7.952 7.952 0 00-2.167 2.12c-.749 1.033-1.058 1.96-.903 2.835.103.503.335.927.748 1.272.413.318.852.503 1.316.503 1.342 0 2.89-.742 4.593-2.2a11.653 11.653 0 002.53-3.02c.696-1.219.954-2.252.773-3.074a1.313 1.313 0 00-.103-.291c.078-.026.18-.026.258-.026.052.159.103.264.103.37.207.928-.051 2.014-.722 3.233-.62 1.113-1.471 2.12-2.555 3.074-1.755 1.457-3.355 2.173-4.8 2.173a2.525 2.525 0 01-1.548-.504c-.516-.397-.826-.927-.955-1.59-.155-.9.13-1.907.904-2.994.67-.98 1.47-1.749 2.4-2.305 1.315-.822 2.58-1.351 3.741-1.643.774-.159 1.729-.265 2.864-.265-.619-.98-1.677-1.484-3.148-1.484-2.374 0-4.645.928-6.812 2.783a8.975 8.975 0 00-2.452 3.338c-.542 1.272-.645 2.411-.335 3.445.361 1.272 1.084 2.173 2.167 2.756.852.477 1.807.688 2.865.662C10.302 20.91 14.302 14.948 16.65 11c.129-.185.206-.291.284-.477l.025.027c.826-1.484 2.168-3.366 4-5.644z" fill="#fff"/></svg>