<svg width="70" height="49" fill="none" xmlns="http://www.w3.org/2000/svg"><path d="M41.99 18.669a4.66 4.66 0 004.666-4.666 4.66 4.66 0 00-4.665-4.665 4.66 4.66 0 00-4.666 4.665 4.66 4.66 0 004.666 4.666zm0-6.998a2.34 2.34 0 012.334 2.332 2.34 2.34 0 01-2.333 2.333 2.34 2.34 0 01-2.333-2.333 2.34 2.34 0 012.333-2.332z" fill="#fff"/><path d="M68.54.034L50.01 4.67H19.975L1.443.034a1.2 1.2 0 00-.991.218A1.133 1.133 0 000 1.171v46.656c0 .364.16.7.452.919.277.218.656.306 1.006.218l18.517-4.636H50.01l18.516 4.636c.35.088.715.015 1.006-.218.277-.22.452-.555.452-.919V1.171c0-.365-.16-.7-.452-.919-.277-.218-.641-.306-.991-.218zM20.996 7.003H48.99V22.72l-1.196-2.26a1.191 1.191 0 00-1.035-.568c-.423 0-.816.218-1.035.568l-4.52 8.573-5.263-12a1.166 1.166 0 00-1.064-.699c-.467 0-.89.277-1.065.7l-5.06 11.533-4.271-8.107a1.18 1.18 0 00-1.035-.627c-.438 0-.831.234-1.035.627l-1.415 2.683V7.003zm21.316 30.326H27.44l7.436-16.927 7.435 16.927zm-23.648 4.928L2.333 46.34V2.673l16.33 4.082V27.56L13.18 37.956c-.19.365-.175.802.03 1.152.204.35.583.569.991.569h4.462v2.58zm-2.508-4.928l7.29-13.822 4.111 7.8-2.653 6.022h-8.748zm32.834 4.666H20.995v-2.333H48.99v2.333zm-4.126-4.666l-2.45-5.57 4.36-8.252 7.275 13.822h-9.185zm22.788 9.01l-16.33-4.082v-2.595h4.666c.409 0 .788-.219 1.006-.569a1.16 1.16 0 00.03-1.151l-5.701-10.804V6.755l16.33-4.082V46.34z" fill="#fff"/></svg>