<svg width="13" height="17" viewBox="0 0 13 17" fill="none" xmlns="http://www.w3.org/2000/svg">
<path d="M11.1875 0.519043H1.8125C0.951172 0.519043 0.250977 1.31396 0.250977 2.2918V14.3552C0.250977 15.333 0.951172 16.1279 1.8125 16.1279H11.1875C12.0488 16.1279 12.749 15.333 12.749 14.3552V2.2918C12.749 1.31396 12.0488 0.519043 11.1875 0.519043ZM3.06348 1.93924H9.93945C10.4551 1.93924 10.877 2.41819 10.877 3.00356C10.877 3.58893 10.4551 4.06788 9.93945 4.06788H3.06348C2.54785 4.06788 2.12598 3.58893 2.12598 3.00356C2.12598 2.41486 2.54492 1.93924 3.06348 1.93924ZM3.06348 13.9993C2.54785 13.9993 2.12598 13.5204 2.12598 12.935C2.12598 12.3496 2.54785 11.8707 3.06348 11.8707C3.5791 11.8707 4.00098 12.3496 4.00098 12.935C4.00098 13.5204 3.5791 13.9993 3.06348 13.9993ZM9.93652 13.9993C9.4209 13.9993 8.99902 13.5204 8.99902 12.935C8.99902 12.3496 9.4209 11.8707 9.93652 11.8707C10.4521 11.8707 10.874 12.3496 10.874 12.935C10.874 13.5204 10.4551 13.9993 9.93652 13.9993ZM11.501 9.38947C11.501 9.97484 11.0791 10.4538 10.5635 10.4538H2.43652C1.9209 10.4538 1.49902 9.97484 1.49902 9.38947V5.84063C1.49902 5.25526 1.9209 4.77631 2.43652 4.77631H10.5605C11.0762 4.77631 11.498 5.25526 11.498 5.84063L11.501 9.38947Z" fill="black"/>
</svg>
