<svg width="17" height="18" viewBox="0 0 17 18" fill="none" xmlns="http://www.w3.org/2000/svg">
<path d="M8.06078 16.1111C8.06078 16.9802 7.44036 17.6846 6.67479 17.6846C5.90922 17.6846 5.28881 16.9802 5.28881 16.1111C5.28881 15.242 5.90922 14.5376 6.67479 14.5376C7.44036 14.5376 8.06078 15.242 8.06078 16.1111ZM12.2866 14.5376C11.5211 14.5376 10.9006 15.242 10.9006 16.1111C10.9006 16.9802 11.5211 17.6846 12.2866 17.6846C13.0522 17.6846 13.6726 16.9802 13.6726 16.1111C13.6726 15.242 13.0522 14.5376 12.2866 14.5376ZM16.5882 7.15127L14.883 12.9056C14.883 12.9056 14.7418 13.7597 14.023 13.7597C13.3043 13.7597 6.27054 13.7597 5.41211 13.7597C4.55367 13.7597 4.51777 12.6895 4.51777 12.6895C4.51777 12.6895 3.60237 4.98242 3.5571 4.51728C3.51184 4.05215 2.98741 3.70662 2.98741 3.70662L0.731286 2.50967C-0.504864 1.77609 0.0570223 0.380687 0.731286 0.701408C3.593 2.23414 4.92202 2.9881 5.00708 3.59144C5.09371 4.19656 5.24432 5.65221 5.24432 5.65221V5.66196C5.26149 5.65575 5.27398 5.65221 5.27398 5.65221C5.27398 5.65221 14.0488 5.65221 15.821 5.65221C17.0939 5.6531 16.5882 7.15393 16.5882 7.15127ZM14.1213 10.3558L14.1042 10.3567H5.75626L5.92795 11.9054H13.7155L14.1213 10.3558ZM14.9345 7.2319H5.41055L5.59394 8.88689C7.42085 8.88689 12.7705 8.88689 14.5037 8.88689L14.9345 7.2319Z" fill="#A77AF7"/>
</svg>
