<svg width="18" height="15" viewBox="0 0 18 15" fill="none" xmlns="http://www.w3.org/2000/svg">
<path d="M15.5634 2.41751H15.0888V0.789062H2.90723V5.1795C2.90723 6.50062 3.23769 7.78981 3.86347 8.89939C4.14472 9.3983 4.47871 9.85331 4.85839 10.2524H6.70057H11.299H13.1412C13.5209 9.85331 13.8548 9.3983 14.1361 8.89939C14.3084 8.59206 14.456 8.27276 14.5826 7.94547H15.5634C16.9064 7.94547 17.9998 6.70417 17.9998 5.1795C17.9998 3.65881 16.9064 2.41751 15.5634 2.41751ZM15.5634 6.73211H14.9341C15.0361 6.22522 15.0888 5.70635 15.0888 5.18349V3.63087H15.5634C16.3158 3.63087 16.9275 4.32536 16.9275 5.1795C16.931 6.03763 16.3193 6.73211 15.5634 6.73211Z" fill="#EBC84A"/>
<path d="M11.5488 11.4658H6.45117H0V11.6694C0 13.1304 1.04414 14.3159 2.33086 14.3159H15.6691C16.9559 14.3159 18 13.1264 18 11.6694V11.4658H11.5488Z" fill="#EBC84A"/>
</svg>
