<svg width="20" height="14" viewBox="0 0 20 14" fill="none" xmlns="http://www.w3.org/2000/svg">
<path d="M10.0003 9.63889L4.03418 7.5542V9.60448V11.0354C4.03418 12.6441 6.70658 13.9517 10.0029 13.9517C13.2992 13.9517 15.9716 12.6469 15.9716 11.0382C15.9716 11.0268 15.969 11.0124 15.9665 11.001V7.5542L10.0003 9.63889Z" fill="#3277E9"/>
<path d="M0 5.15659L2.13185 6.02264L2.31372 5.58101L3.09674 5.50645L3.20788 5.63836L2.53599 5.81903L2.43748 6.14882C2.43748 6.14882 0.919424 9.75066 1.1417 11.5143C1.1417 11.5143 2.08891 12.1567 3.03612 11.5143L3.28871 6.69655V6.29507L4.69816 5.93374L4.59965 6.21191L3.54888 6.59905L4.03385 6.79692L10 8.88175L15.9662 6.79692L20 5.15946L10 0.789062L0 5.15659Z" fill="#3277E9"/>
</svg>
