<svg width="19" height="16" viewBox="0 0 19 16" fill="none" xmlns="http://www.w3.org/2000/svg">
<path d="M17.671 11.6353C17.3844 11.8638 16.9856 12.0922 16.4871 12.3082C15.8516 11.3528 15.2991 10.3268 14.8878 9.25507C14.5804 8.4492 14.2855 7.53532 14.3727 6.66299C14.4226 6.1562 14.7715 5.46249 15.4029 5.58711C15.6563 5.63695 15.8516 5.85296 16.0634 5.98589C16.3957 6.2019 16.7696 6.2642 17.1559 6.2102C17.9161 4.41153 17.239 2.38854 16.1133 1.33343L15.8225 0C14.9294 0.0166159 13.9324 0.157851 13.2553 0.797565C12.7818 1.24204 12.5616 1.85268 12.3415 2.4467C12.1213 3.03656 11.8721 3.63058 11.3902 4.05429C11.6436 4.4323 11.789 4.87262 11.789 5.35033C11.789 6.70868 10.5926 7.81364 9.12213 7.81364C7.65162 7.81364 6.45527 6.70868 6.45527 5.35033C6.45527 5.25063 6.46358 5.14678 6.47604 5.05124C4.21628 4.01275 2.25976 5.85712 2.0936 5.98589L3.29826 7.2487C4.20382 6.25174 5.27555 6.06897 5.34201 6.06481C3.45195 7.81364 2.33038 10.9582 1.9316 12.2252C1.5162 12.0341 1.17973 11.8347 0.93049 11.6353L0 12.8067C0.955414 13.5711 2.17253 13.9948 3.33979 14.3063C4.92661 14.7259 6.57574 14.9211 8.21241 14.9834C9.96123 15.0499 11.7267 14.9668 13.4547 14.6843C14.838 14.46 16.2379 14.1194 17.5007 13.4921C17.887 13.3011 18.265 13.0767 18.6015 12.8067L17.671 11.6353ZM8.96012 13.5046C7.10745 13.4797 5.23401 13.2886 3.4478 12.7776C4.71476 10.8336 6.80421 9.39215 9.1969 9.53754C11.4027 9.67047 13.3426 11.0828 14.5888 12.8441C14.6054 12.869 14.622 12.8898 14.6386 12.9147C12.7901 13.3717 10.8626 13.5254 8.96012 13.5046Z" fill="#EF8044"/>
</svg>
