<svg width="15" height="18" viewBox="0 0 15 18" fill="none" xmlns="http://www.w3.org/2000/svg">
<path d="M12.8716 3.9133H11.5034V2.93529C11.5034 1.61211 10.5405 0.519043 9.375 0.519043H5.625C4.45946 0.519043 3.49662 1.61211 3.49662 2.93529V3.85577H2.12838C0.962838 3.9133 0 4.83378 0 6.15696V15.1316C0 16.4548 0.962838 17.5479 2.12838 17.5479H12.8716C14.0372 17.5479 15 16.4548 15 15.1316V6.15696C15 4.83378 14.0372 3.9133 12.8716 3.9133ZM4.61149 2.93529C4.61149 2.36 5.06757 1.7847 5.625 1.7847H9.375C9.88176 1.7847 10.3885 2.30247 10.3885 2.93529V3.85577H4.61149V2.93529ZM10.9459 12.3126H8.66554V14.9015H6.38513V12.3126H4.05405V9.09098H6.33446V6.50214H8.61486V9.09098H10.8953L10.9459 12.3126Z" fill="#E03021"/>
</svg>
