<svg width="18" height="15" viewBox="0 0 18 15" fill="none" xmlns="http://www.w3.org/2000/svg">
<path d="M16.8926 2.48535V12.7632C17.5289 12.5716 18 11.913 18 11.1307V4.11384C18 3.33552 17.5289 2.67694 16.8926 2.48535Z" fill="#75A68A"/>
<path d="M14.298 1.125H13.95C13.1309 1.125 12.4629 1.8833 12.4629 2.81323V12.4397C12.4629 13.3696 13.1309 14.1279 13.95 14.1279H14.298C15.1172 14.1279 15.7852 13.3696 15.7852 12.4397V2.80923C15.7852 1.87931 15.1207 1.125 14.298 1.125Z" fill="#75A68A"/>
<path d="M11.359 5.53516H6.64453V9.65381H11.359V5.53516Z" fill="#75A68A"/>
<path d="M0 3.78286V10.7997C0 11.582 0.471094 12.2405 1.10742 12.4321V2.15039C0.471094 2.34198 0 3.00055 0 3.78286Z" fill="#75A68A"/>
<path d="M4.05 0.789062H3.70195C2.8793 0.789062 2.21484 1.54742 2.21484 2.47741V12.1046C2.21484 13.0346 2.88281 13.793 3.70195 13.793H4.05C4.86914 13.793 5.53711 13.0346 5.53711 12.1046V2.47741C5.53359 1.54742 4.86914 0.789062 4.05 0.789062Z" fill="#75A68A"/>
</svg>
