<svg width="11" height="15" viewBox="0 0 11 15" fill="none" xmlns="http://www.w3.org/2000/svg">
<path d="M7.66629 7.62361H8.78602C9.09504 7.62361 9.37497 7.4382 9.49494 7.15099C9.61491 6.86379 9.54947 6.53296 9.32771 6.31483L7.13187 4.119H8.20071C8.45883 4.119 8.6915 3.96268 8.78965 3.72637C8.88781 3.49006 8.83328 3.21377 8.65151 3.03199L5.80492 0.18541C5.68132 0.0618032 5.51772 0 5.35412 0C5.19053 0 5.02693 0.0618032 4.90332 0.18541L2.06038 3.02836C1.8786 3.21013 1.82407 3.48279 1.92223 3.72273C2.02039 3.95904 2.25306 4.11537 2.50754 4.11537H3.57637L1.38054 6.3112C1.16241 6.52933 1.09334 6.86016 1.21331 7.14736C1.33328 7.43456 1.61321 7.61997 1.92223 7.61997H3.04196L0.286261 10.3829C0.00632899 10.6629 -0.0772871 11.0846 0.0754031 11.4518C0.228093 11.819 0.584371 12.0553 0.980638 12.0553H3.61636V14.5928C3.61636 14.8146 3.79814 14.9964 4.0199 14.9964H6.69562C6.91738 14.9964 7.09916 14.8146 7.09916 14.5928V12.0553H9.73488C10.1311 12.0553 10.4911 11.8153 10.6401 11.4518C10.7928 11.0846 10.7092 10.6629 10.4256 10.3829L7.66629 7.62361Z" fill="#7EBA56"/>
</svg>
