<svg width="147" height="95" viewBox="0 0 147 95" fill="none" xmlns="http://www.w3.org/2000/svg">
<path d="M8.29578 57.8718V69.0334H8.2326L5.57908 57.8718H0.387882L3.61001 68.349L0.356293 83.1539H5.57908L8.2326 69.8969H8.29578V83.1539H13.5502V69.9074H13.6449L16.2984 83.1645H21.4896L18.2675 68.3595L21.4581 57.8824H16.2984L13.6449 69.044H13.5502V57.8824H8.29578V57.8718ZM23.1639 57.8718V83.1539H28.4183L31.0402 71.1499H31.0718V83.1539H35.9682V57.8718H30.6506L28.0813 69.4862H28.0497V57.8718H23.1639ZM40.1485 57.8718V76.7939C40.1485 78.4997 39.5799 79.2368 38.39 79.2368H37.7582V83.1434H39.0429C43.7602 83.1434 45.0449 79.9529 45.0449 75.9515V61.9047H46.8981V83.1539H52.1841V57.8718H40.1485ZM59.8182 71.3711H60.471C61.3029 71.3711 61.6925 71.7607 61.6925 72.9505V77.9311C61.6925 79.121 61.3029 79.5106 60.471 79.5106H59.8182V71.3711ZM59.8182 57.8718H54.5638V83.1539H60.7764C63.9985 83.1539 66.9574 81.9009 66.9574 78.0154V72.8558C66.9574 68.9703 63.9985 67.7172 60.7764 67.7172H59.8182V57.8718ZM69.3688 57.8718V83.1539H79.1931V79.5106H74.6231V70.8867H79.0141V67.275H74.6231V61.4836H79.1931V57.8718H69.3688Z" fill="#414141"/>
<path d="M68.8019 24.4502H70.2024V26.9879C70.2024 27.2827 70.1392 27.5881 70.0234 27.8829C69.9076 28.1567 69.7496 28.3883 69.5495 28.5989C69.3495 28.8095 69.0968 28.9885 68.8335 29.1043C68.5597 29.2202 68.2649 29.2834 67.9701 29.2834H67.0434C66.7486 29.2834 66.4432 29.2202 66.18 29.1043C65.9062 28.9885 65.6746 28.8095 65.4956 28.5989C65.285 28.3883 65.106 28.1461 64.9901 27.8829C64.8743 27.5881 64.8427 27.2827 64.8427 26.9879V18.5324C64.8427 18.206 64.8743 17.9006 64.9901 17.6058C65.106 17.332 65.285 17.1004 65.4956 16.8898C65.6746 16.6792 65.9167 16.5002 66.18 16.3843C66.4538 16.2685 66.7486 16.2053 67.0434 16.2053H67.9701C68.2649 16.2053 68.5703 16.2685 68.8335 16.3843C69.1073 16.5002 69.3389 16.6792 69.5495 16.8898C69.7601 17.1004 69.9076 17.3425 70.0234 17.6058C70.1392 17.9006 70.2024 18.206 70.2024 18.5324V20.5331H68.8019V18.5324C68.8019 18.2586 68.7072 18.0586 68.5597 17.9006C68.4123 17.7216 68.2017 17.6584 67.9595 17.6584H67.0329C66.7907 17.6584 66.5801 17.7216 66.4327 17.9006C66.2853 18.048 66.1905 18.2586 66.1905 18.5324V26.9773C66.1905 27.2195 66.2853 27.4301 66.4327 27.6091C66.5801 27.7565 66.7907 27.8513 67.0329 27.8513H67.9595C68.1701 27.8513 68.3175 27.8197 68.4334 27.7565C68.5281 27.7249 68.6124 27.6618 68.6756 27.6091C68.7072 27.5143 68.7387 27.4301 68.7387 27.3143C68.7703 27.2195 68.7703 27.1037 68.7703 26.9879V24.4502H68.8019ZM74.4985 17.7637V29.1359H73.1297V17.7637H70.95V16.3317H76.6782V17.7637H74.4985ZM79.1527 17.7637V22.2073H80.8586C81.1007 22.2073 81.3113 22.1126 81.4588 21.9651C81.6062 21.7861 81.7009 21.5755 81.7009 21.3333V18.5324C81.7009 18.2586 81.6062 18.0796 81.4588 17.9322C81.3113 17.8164 81.1007 17.7532 80.8586 17.7532H79.1527V17.7637ZM77.7523 16.3317H80.8586C81.1534 16.3317 81.4588 16.3633 81.722 16.4791C81.9852 16.5949 82.2274 16.7529 82.438 16.9319C82.617 17.1425 82.796 17.3847 82.8908 17.6479C83.0066 17.9217 83.0698 18.2165 83.0698 18.5429V21.3439C83.0698 21.6703 83.0066 21.9757 82.8908 22.2389C82.796 22.5127 82.617 22.7443 82.438 22.9549C82.2274 23.1655 81.9852 23.3445 81.722 23.4604C81.4482 23.5762 81.1534 23.6394 80.8586 23.6394H79.1527V29.1359H77.7523V16.3317ZM88.3768 18.5324C88.3768 18.2586 88.2821 18.0586 88.1347 17.9006C87.9872 17.7216 87.7766 17.6584 87.5345 17.6584H86.6078C86.3341 17.6584 86.1551 17.7216 85.976 17.9006C85.8286 18.048 85.7654 18.2586 85.7654 18.5324V26.9773C85.7654 27.2195 85.8286 27.4301 85.976 27.6091C86.1551 27.7565 86.3341 27.8513 86.6078 27.8513H87.5345C87.7766 27.8513 87.9872 27.7565 88.1347 27.6091C88.2821 27.4301 88.3768 27.2195 88.3768 26.9773V18.5324ZM89.7562 26.9879C89.7562 27.2827 89.6931 27.5881 89.5772 27.8829C89.4825 28.1567 89.3035 28.3883 89.1245 28.5989C88.9139 28.8095 88.6717 28.9885 88.4084 29.1043C88.1347 29.2202 87.8398 29.2834 87.545 29.2834H86.6184C86.2919 29.2834 86.0182 29.2202 85.7549 29.1043C85.4811 28.9885 85.2495 28.8095 85.0389 28.5989C84.8283 28.3883 84.6809 28.1461 84.565 27.8829C84.4492 27.5881 84.386 27.2827 84.386 26.9879V18.5324C84.386 18.206 84.4492 17.9006 84.565 17.6058C84.6809 17.332 84.8388 17.1004 85.0389 16.8898C85.239 16.6792 85.4917 16.5002 85.7549 16.3843C86.0287 16.2685 86.2919 16.2053 86.6184 16.2053H87.545C87.8398 16.2053 88.1452 16.2685 88.4084 16.3843C88.6822 16.5002 88.9139 16.6792 89.1245 16.8898C89.3035 17.1004 89.4825 17.3425 89.5772 17.6058C89.6931 17.9006 89.7562 18.206 89.7562 18.5324V26.9879ZM96.2321 29.1359V20.1856L93.0731 28.5989V29.1359H91.7043V16.3317H93.0731V25.2294L96.2321 16.8371V16.3317H97.6326V29.1359H96.2321ZM102.255 17.7637V29.1359H100.886V17.7637H98.7066V16.3317H104.435V17.7637H102.255ZM106.888 17.7637V21.3439H109.542V22.7759H106.888V27.6723H109.963V29.1359H105.519V16.3317H109.963V17.7637H106.888ZM110.468 27.8197C110.763 27.8197 111.037 27.7881 111.248 27.7565C111.458 27.6934 111.606 27.6407 111.753 27.5459C111.869 27.4828 111.964 27.3985 112.027 27.2722C112.09 27.1774 112.122 27.0932 112.122 26.9984L112.543 16.279H117.587V29.1149H116.218V17.7321H113.922L113.533 27.0194C113.533 27.3459 113.438 27.6512 113.29 27.9145C113.143 28.1883 112.932 28.4199 112.69 28.6305C112.416 28.8411 112.09 28.9885 111.732 29.1043C111.342 29.2202 110.921 29.2518 110.479 29.2518H110.3V27.8197H110.468ZM124.642 27.1669C124.642 27.4406 124.61 27.7039 124.494 27.9777C124.378 28.2514 124.22 28.4831 124.041 28.6621C123.862 28.8411 123.652 29.0201 123.41 29.1149C123.136 29.2307 122.873 29.2939 122.599 29.2939H121.641C121.346 29.2939 121.072 29.2307 120.83 29.1149C120.556 29.0201 120.356 28.8411 120.177 28.6621C119.998 28.4831 119.85 28.2409 119.724 27.9777C119.629 27.7039 119.577 27.4406 119.577 27.1669V16.3001H120.946V21.1333C121.219 20.9227 121.483 20.7437 121.756 20.5647C121.999 20.4172 122.23 20.2909 122.472 20.1751C122.746 20.0592 122.946 19.9961 123.157 19.9961C123.578 19.9961 123.936 20.1435 124.199 20.4488C124.494 20.7437 124.62 21.1017 124.62 21.5229V27.1669H124.642ZM123.273 22.1757C123.273 21.9335 123.273 21.7545 123.241 21.6387C123.178 21.5229 123.146 21.4597 123.094 21.4597C122.999 21.4597 122.851 21.5229 122.62 21.6071C122.409 21.7229 122.167 21.8493 121.935 21.9967C121.662 22.1757 121.335 22.3863 121.009 22.5969V27.1669C121.009 27.3775 121.072 27.5249 121.156 27.6407C121.272 27.7881 121.451 27.8513 121.662 27.8513H122.62C122.799 27.8513 122.978 27.7881 123.094 27.6407C123.209 27.5249 123.273 27.3669 123.273 27.1669V22.1757ZM131.928 16.3317V29.1359H130.528V22.7759H127.99V29.1359H126.59V16.3317H127.99V21.3439H130.528V16.3317H131.928ZM138.499 29.1359L137.93 26.0296H135.098L134.561 29.1359H133.16L135.161 16.7739C135.161 16.6265 135.256 16.5002 135.371 16.3843C135.519 16.2685 135.645 16.2053 135.824 16.2053H137.193C137.372 16.2053 137.488 16.2685 137.646 16.3843C137.762 16.5002 137.856 16.6265 137.856 16.7739L139.92 29.1359H138.499ZM136.677 17.8796C136.677 17.8164 136.677 17.7848 136.646 17.7637C136.614 17.7006 136.551 17.669 136.53 17.669H136.467C136.403 17.669 136.372 17.669 136.351 17.7321C136.351 17.7953 136.319 17.8269 136.319 17.8796L135.277 24.566H137.751L136.677 17.8796ZM146.196 29.1359H144.796V22.8391H144.259L142.079 29.1359H140.647L142.827 22.8391C142.553 22.8075 142.289 22.7233 142.079 22.5653C141.837 22.4495 141.626 22.2705 141.447 22.0915C141.268 21.8809 141.121 21.6387 141.026 21.3755C140.91 21.1017 140.878 20.8384 140.878 20.5436V18.5429C140.878 18.2165 140.942 17.9112 141.058 17.6479C141.173 17.3741 141.331 17.1425 141.531 16.9319C141.71 16.7529 141.953 16.6055 142.216 16.4791C142.49 16.3633 142.784 16.3317 143.079 16.3317H146.186V29.1359H146.196ZM143.09 17.7637C142.848 17.7637 142.637 17.8269 142.49 17.9427C142.342 18.0902 142.247 18.2692 142.247 18.5429V20.5436C142.247 20.8174 142.342 21.0174 142.49 21.1754C142.637 21.3228 142.848 21.4176 143.09 21.4176H144.796V17.7743H143.09V17.7637ZM68.9493 34.98C69.1599 34.5904 69.4021 34.264 69.6338 33.9902C69.8444 33.7164 70.0866 33.5163 70.2866 33.3584C70.5288 33.211 70.7394 33.0846 70.9711 33.0004C71.1817 32.9056 71.3923 32.8846 71.6239 32.853V34.285C71.5607 34.285 71.5081 34.3166 71.4133 34.3482C71.2975 34.3482 71.2027 34.4114 71.0869 34.443C70.9711 34.5061 70.8447 34.5588 70.7289 34.6536C70.613 34.7483 70.5183 34.8642 70.434 34.98L68.4439 38.5391V38.6865L71.6344 45.6678H70.1708L67.2751 39.3077H66.4117V45.6678H65.0428V32.8635H66.4117V37.8757H67.2751L68.9493 34.98ZM76.4676 35.0748C76.4676 34.801 76.3729 34.6009 76.2254 34.443C76.078 34.2955 75.8674 34.2008 75.6252 34.2008H74.6986C74.4248 34.2008 74.2458 34.2955 74.0668 34.443C73.9194 34.5904 73.8562 34.801 73.8562 35.0748V43.5197C73.8562 43.7934 73.9194 43.9935 74.0668 44.1515C74.2458 44.2989 74.4248 44.3936 74.6986 44.3936H75.6252C75.8674 44.3936 76.078 44.2989 76.2254 44.1515C76.3729 44.004 76.4676 43.7934 76.4676 43.5197V35.0748ZM77.847 43.5197C77.847 43.8461 77.7839 44.1515 77.6996 44.4147C77.5838 44.6885 77.4048 44.9201 77.2258 45.1307C77.0152 45.3413 76.773 45.5203 76.5097 45.6362C76.236 45.752 75.9411 45.8152 75.6463 45.8152H74.7197C74.3933 45.8152 74.1195 45.752 73.8562 45.6362C73.5825 45.5203 73.3508 45.3413 73.1402 45.1307C72.9296 44.9201 72.7822 44.6779 72.6664 44.4147C72.5505 44.1409 72.4874 43.8461 72.4874 43.5197V35.0748C72.4874 34.7483 72.5505 34.443 72.6664 34.1797C72.7822 33.8849 72.9401 33.6427 73.1402 33.4321C73.3403 33.2215 73.593 33.0425 73.8562 32.9583C74.13 32.8424 74.3933 32.7793 74.7197 32.7793H75.6463C75.9411 32.7793 76.2465 32.8424 76.5097 32.9583C76.7835 33.053 77.0152 33.232 77.2258 33.4321C77.4048 33.6427 77.5838 33.8849 77.6996 34.1797C77.7944 34.4535 77.847 34.7483 77.847 35.0748V43.5197ZM88.0188 32.8635L88.4927 45.6678H87.0922L86.6394 34.2955H86.492L84.7335 45.5203H83.3647L81.6378 34.2955H81.4903L81.0165 45.6678H79.6476L80.1215 32.8635H82.8697L84.0596 42.1508L85.2811 32.8635H88.0188ZM95.8109 32.8635V45.6678H94.442V34.2955H91.9043V45.6678H90.5039V32.8635H95.8109ZM102.413 45.6678L101.844 42.5615H99.012L98.4433 45.6678H97.0745L99.0751 33.3057C99.0751 33.1899 99.1699 33.032 99.2857 32.9477C99.4016 32.8319 99.5595 32.7687 99.7385 32.7687H101.107C101.255 32.7687 101.402 32.8003 101.56 32.9161C101.676 33.032 101.739 33.1583 101.771 33.3057L103.803 45.6678H102.413ZM100.591 34.4114C100.591 34.3482 100.56 34.3166 100.56 34.2955C100.497 34.2324 100.465 34.2008 100.444 34.2008H100.381C100.318 34.2008 100.286 34.2324 100.265 34.2955C100.265 34.3271 100.233 34.3903 100.233 34.4114L99.191 41.1294H101.665L100.591 34.4114ZM110.353 32.8635V45.6678H108.984V39.3077H106.414V45.6678H105.046V32.8635H106.414V37.8757H108.984V32.8635H110.353ZM117.06 45.6678V36.7385L113.901 45.1307V45.6678H112.532V32.8635H113.901V41.7928L117.06 33.3795V32.874H118.461V45.6783H117.06V45.6678ZM125.695 45.6678H124.326V39.4025H123.757L121.577 45.6678H120.177L122.357 39.3709C122.062 39.3393 121.82 39.2551 121.577 39.1287C121.335 38.9813 121.125 38.8339 120.946 38.6233C120.767 38.4127 120.619 38.1705 120.524 37.9389C120.43 37.6651 120.377 37.3703 120.377 37.0754V35.0748C120.377 34.7483 120.44 34.443 120.556 34.1797C120.672 33.9059 120.83 33.6743 121.03 33.4953C121.24 33.2847 121.483 33.1373 121.746 33.0214C122.02 32.9267 122.283 32.874 122.609 32.874H125.684V45.6678H125.695ZM122.62 34.2955C122.346 34.2955 122.167 34.3587 121.988 34.5061C121.841 34.622 121.777 34.8326 121.777 35.0748V37.0754C121.777 37.3492 121.841 37.5493 121.988 37.7072C122.167 37.8862 122.346 37.9494 122.62 37.9494H124.326V34.3061H122.62V34.2955Z" fill="#414141"/>
<path d="M146.196 90.9144H0V95H146.196V90.9144Z" fill="#3CB453"/>
<path fill-rule="evenodd" clip-rule="evenodd" d="M45.9414 22.1758L32.4738 27.7882V23.3973L45.9414 17.7849L55.9974 21.9968V26.3561L45.9414 22.1758Z" fill="#3CB453"/>
<path fill-rule="evenodd" clip-rule="evenodd" d="M45.9414 31.3157L32.4738 36.9175V32.5371L45.9414 26.9247L55.9974 31.1367V35.5171L45.9414 31.3157Z" fill="#3CB453"/>
<path fill-rule="evenodd" clip-rule="evenodd" d="M45.9414 40.5082L32.4738 46.1206V41.7297L45.9414 36.1173L55.9974 40.3292V44.7096L45.9414 40.5082Z" fill="#3CB453"/>
<path fill-rule="evenodd" clip-rule="evenodd" d="M23.5234 27.2828L7.37069 34.2956V50.3852L2.17949 52.5333V32.0844L23.5234 22.8918V9.33995L45.9414 0L55.9974 4.18034V8.57127L45.9414 4.35934L37.3385 7.93948L28.7146 11.5512V45.9942L23.5234 48.1423V27.2828Z" fill="#3CB453"/>
<path fill-rule="evenodd" clip-rule="evenodd" d="M45.9414 13.8467L32.4738 19.4591V15.0998L45.9414 9.48736L55.9974 13.6677V18.0586L45.9414 13.8467Z" fill="#3CB453"/>
<path fill-rule="evenodd" clip-rule="evenodd" d="M24.629 39.9712V44.2042L11.372 49.7323V45.4888L24.629 39.9712Z" fill="#3CB453"/>
<path fill-rule="evenodd" clip-rule="evenodd" d="M24.629 32.4424V36.6543L11.372 42.1719V37.9705L24.629 32.4424Z" fill="#3CB453"/>
<path d="M90.6194 65.1585V60.6517C90.6194 59.8725 90.7352 58.7985 91.6302 58.7985C92.5569 58.7985 92.6727 59.8725 92.6727 60.6517C92.6727 68.0858 84.7964 72.3188 84.7964 77.3626V83.154H98.4957V78.9736H90.6194C90.6194 74.1931 98.4957 68.8229 98.4957 60.915V59.7462C98.4957 56.0186 95.2104 54.6392 91.6302 54.6392C88.0501 54.6392 84.7964 56.0081 84.7964 59.7462V65.148H90.6194V65.1585ZM100.823 78.5945C100.823 82.3221 104.076 83.7015 107.657 83.7015C111.237 83.7015 114.49 82.3326 114.49 78.5945V59.7567C114.49 56.0292 111.237 54.6497 107.657 54.6497C104.076 54.6497 100.823 56.0186 100.823 59.7567V78.5945ZM108.678 77.6995C108.678 78.4787 108.562 79.5528 107.667 79.5528C106.741 79.5528 106.625 78.4787 106.625 77.6995V60.6517C106.625 59.8725 106.741 58.7985 107.667 58.7985C108.562 58.7985 108.678 59.8725 108.678 60.6517V77.6995ZM116.828 78.5945C116.828 82.3221 120.082 83.7015 123.694 83.7015C127.274 83.7015 130.527 82.3326 130.527 78.5945V59.7567C130.527 56.0292 127.274 54.6497 123.694 54.6497C120.082 54.6497 116.828 56.0186 116.828 59.7567V78.5945ZM124.704 77.6995C124.704 78.4787 124.589 79.5528 123.694 79.5528C122.767 79.5528 122.651 78.4787 122.651 77.6995V60.6517C122.651 59.8725 122.767 58.7985 123.694 58.7985C124.589 58.7985 124.704 59.8725 124.704 60.6517V77.6995ZM132.854 78.5945C132.854 82.3221 136.108 83.7015 139.688 83.7015C143.268 83.7015 146.554 82.3326 146.554 78.5945V59.7567C146.554 56.0292 143.268 54.6497 139.688 54.6497C136.108 54.6497 132.854 56.0186 132.854 59.7567V78.5945ZM140.731 77.6995C140.731 78.4787 140.615 79.5528 139.688 79.5528C138.793 79.5528 138.677 78.4787 138.677 77.6995V60.6517C138.677 59.8725 138.793 58.7985 139.688 58.7985C140.615 58.7985 140.731 59.8725 140.731 60.6517V77.6995Z" fill="#3CB453"/>
</svg>
