<svg width="147" height="95" fill="none" xmlns="http://www.w3.org/2000/svg"><path d="M8.296 57.872v11.161h-.063L5.579 57.872H.388L3.61 68.349.356 83.154H5.58l2.654-13.257h.063v13.257h5.254V69.907h.095l2.653 13.258h5.192l-3.223-14.806 3.191-10.477h-5.16l-2.653 11.162h-.095V57.882H8.296v-.01zm14.868 0v25.282h5.254L31.04 71.15h.032v12.004h4.896V57.872h-5.317l-2.57 11.614h-.031V57.872h-4.886zm16.984 0v18.922c0 1.706-.568 2.443-1.758 2.443h-.632v3.906h1.285c4.717 0 6.002-3.19 6.002-7.192V61.905h1.853v21.249h5.286V57.872H40.15zm19.67 13.5h.653c.832 0 1.222.389 1.222 1.579v4.98c0 1.19-.39 1.58-1.222 1.58h-.653v-8.14zm0-13.5h-5.254v25.282h6.212c3.222 0 6.181-1.253 6.181-5.139v-5.16c0-3.885-2.958-5.138-6.18-5.138h-.959v-9.845zm9.55 0v25.282h9.825V79.51h-4.57v-8.624h4.391v-3.612h-4.39v-5.791h4.57v-3.612h-9.825zm-.566-33.422h1.4v2.538c0 .295-.063.6-.179.895a2.356 2.356 0 01-1.19 1.221c-.273.116-.568.18-.863.18h-.927c-.294 0-.6-.064-.863-.18a1.844 1.844 0 01-.684-.505 2.389 2.389 0 01-.506-.716 2.421 2.421 0 01-.147-.895v-8.456c0-.326.031-.631.147-.926.116-.274.295-.506.506-.716.179-.21.42-.39.684-.506.274-.116.569-.179.863-.179h.927c.295 0 .6.064.864.18.273.115.505.294.715.505.211.21.359.453.474.716.116.295.18.6.18.926v2.001h-1.401v-2a.882.882 0 00-.242-.632c-.148-.18-.358-.243-.6-.243h-.927c-.242 0-.453.064-.6.243a.865.865 0 00-.243.631v8.445a.98.98 0 00.243.632.842.842 0 00.6.242h.927c.21 0 .358-.031.473-.095a.784.784 0 00.243-.147c.031-.095.063-.179.063-.295.031-.095.031-.21.031-.326V24.45h.032zm5.697-6.686v11.372h-1.37V17.764H70.95v-1.432h5.728v1.432h-2.18zm4.654 0v4.443h1.706a.842.842 0 00.6-.242.982.982 0 00.242-.632v-2.8a.79.79 0 00-.242-.6c-.148-.117-.358-.18-.6-.18h-1.706v.01zm-1.4-1.432h3.106c.294 0 .6.031.863.147.263.116.505.274.716.453.179.21.358.453.453.716.116.274.179.569.179.895v2.8c0 .327-.063.633-.18.896-.094.274-.273.505-.452.716-.21.21-.453.39-.716.505a2.225 2.225 0 01-.863.18h-1.706v5.496h-1.4V16.332zm10.624 2.2a.883.883 0 00-.242-.631c-.148-.18-.358-.243-.6-.243h-.927c-.274 0-.453.064-.632.243-.147.147-.21.358-.21.631v8.445c0 .242.063.453.21.632.18.147.358.242.632.242h.926a.843.843 0 00.6-.242.982.982 0 00.243-.632v-8.445zm1.38 8.456c0 .295-.064.6-.18.895-.094.274-.273.505-.453.716-.21.21-.452.39-.716.505-.273.116-.568.18-.863.18h-.927c-.326 0-.6-.064-.863-.18a2.27 2.27 0 01-.716-.505 2.296 2.296 0 01-.474-.716 2.466 2.466 0 01-.179-.895v-8.456c0-.326.063-.631.179-.926a2.358 2.358 0 011.19-1.222c.274-.116.537-.179.863-.179h.927c.295 0 .6.064.863.18.274.115.506.294.716.505.18.21.359.453.453.716.116.295.18.6.18.926v8.456zm6.475 2.148v-8.95l-3.159 8.413v.537h-1.369V16.332h1.37v8.897l3.158-8.392v-.505h1.4v12.804h-1.4zm6.023-11.372v11.372h-1.369V17.764h-2.18v-1.432h5.729v1.432h-2.18zm4.633 0v3.58h2.654v1.432h-2.654v4.896h3.075v1.464h-4.444V16.332h4.444v1.432h-3.075zm3.58 10.056c.295 0 .569-.032.78-.064.21-.063.358-.115.505-.21a.624.624 0 00.274-.274.48.48 0 00.095-.274l.421-10.719h5.044v12.836h-1.369V17.732h-2.296l-.389 9.287c0 .327-.095.632-.243.896a2.586 2.586 0 01-.6.716c-.274.21-.6.357-.958.473-.39.116-.811.148-1.253.148h-.179V27.82h.168zm14.174-.653c0 .274-.032.537-.148.81a2.159 2.159 0 01-.453.685c-.179.18-.389.358-.631.453a2.053 2.053 0 01-.811.179h-.958c-.295 0-.569-.063-.811-.18-.274-.094-.474-.273-.653-.452a2.49 2.49 0 01-.453-.684 2.439 2.439 0 01-.147-.811V16.3h1.369v4.833c.273-.21.537-.39.81-.568.243-.148.474-.274.716-.39.274-.116.474-.179.685-.179.421 0 .779.148 1.042.453.295.295.421.653.421 1.074v5.644h.022zm-1.369-4.991c0-.242 0-.421-.032-.537-.063-.116-.095-.18-.147-.18-.095 0-.243.064-.474.148-.211.116-.453.242-.685.39-.273.179-.6.39-.926.6v4.57c0 .21.063.358.147.474.116.147.295.21.506.21h.958a.59.59 0 00.474-.21.647.647 0 00.179-.474v-4.991zm8.655-5.844v12.804h-1.4v-6.36h-2.538v6.36h-1.4V16.332h1.4v5.012h2.538v-5.012h1.4zm6.571 12.804l-.569-3.106h-2.832l-.537 3.106h-1.401l2.001-12.362c0-.148.095-.274.21-.39.148-.116.274-.179.453-.179h1.369c.179 0 .295.064.453.18.116.115.21.241.21.389l2.064 12.362h-1.421zm-1.822-11.256c0-.064 0-.095-.031-.116-.032-.063-.095-.095-.116-.095h-.063c-.064 0-.095 0-.116.063 0 .063-.032.095-.032.148l-1.042 6.686h2.474l-1.074-6.686zm9.519 11.256h-1.4v-6.297h-.537l-2.18 6.297h-1.432l2.18-6.297a1.53 1.53 0 01-.748-.274 2.37 2.37 0 01-.632-.474 2.34 2.34 0 01-.421-.716 2.04 2.04 0 01-.148-.831v-2.001c0-.326.064-.632.18-.895a2.34 2.34 0 01.473-.716c.179-.18.422-.326.685-.453.274-.116.568-.147.863-.147h3.107v12.804h.01zm-3.106-11.372c-.242 0-.453.063-.6.179a.788.788 0 00-.243.6v2a.88.88 0 00.243.632.841.841 0 00.6.243h1.706v-3.644h-1.706v-.01zM68.95 34.98a5.8 5.8 0 01.684-.99 3.62 3.62 0 01.653-.632c.242-.147.452-.273.684-.358.21-.094.421-.115.653-.147v1.432c-.063 0-.116.032-.21.063-.117 0-.211.063-.327.095-.116.063-.242.116-.358.21a1.75 1.75 0 00-.295.327l-1.99 3.56v.147l3.19 6.98h-1.463l-2.896-6.36h-.863v6.36h-1.37V32.865h1.37v5.012h.863l1.674-2.896zm7.518.095a.882.882 0 00-.243-.632.842.842 0 00-.6-.242H74.7c-.274 0-.453.094-.632.242-.148.147-.21.358-.21.632v8.445c0 .273.062.473.21.631.179.148.358.243.632.243h.926a.842.842 0 00.6-.242.865.865 0 00.243-.632v-8.445zm1.379 8.445c0 .326-.063.631-.147.895-.116.273-.295.505-.474.716-.21.21-.453.39-.716.505a2.224 2.224 0 01-.864.18h-.926c-.327 0-.6-.064-.864-.18a2.272 2.272 0 01-.716-.505 2.293 2.293 0 01-.653-1.611v-8.445c0-.327.064-.632.18-.895.115-.295.273-.537.473-.748.2-.21.453-.39.716-.474a2.11 2.11 0 01.864-.179h.926c.295 0 .6.063.864.18.273.094.505.273.716.473.179.21.358.453.474.748.094.273.147.568.147.895v8.445zm10.172-10.657l.474 12.805h-1.4l-.454-11.373h-.147L84.734 45.52h-1.37l-1.726-11.225h-.148l-.474 11.373h-1.368l.474-12.804h2.748l1.19 9.287 1.221-9.288h2.738zm7.792 0v12.805h-1.369V34.295h-2.538v11.373h-1.4V32.864h5.307zm6.602 12.805l-.569-3.106h-2.832l-.569 3.106h-1.368l2-12.362c0-.116.095-.274.21-.358a.628.628 0 01.454-.18h1.368c.148 0 .295.032.453.148a.753.753 0 01.211.39l2.032 12.362h-1.39zm-1.822-11.257c0-.063-.031-.094-.031-.116-.063-.063-.095-.094-.116-.094h-.063c-.063 0-.095.031-.116.094 0 .032-.032.095-.032.116l-1.042 6.718h2.474l-1.074-6.718zm9.762-1.547v12.804h-1.369v-6.36h-2.57v6.36h-1.368V32.864h1.368v5.012h2.57v-5.012h1.369zm6.707 12.804v-8.93l-3.159 8.393v.537h-1.369V32.864h1.369v8.929l3.159-8.413v-.506h1.401v12.804h-1.401v-.01zm8.635 0h-1.369v-6.265h-.569l-2.18 6.265h-1.4l2.18-6.297a2.118 2.118 0 01-.78-.242c-.242-.148-.452-.295-.631-.506a2.625 2.625 0 01-.422-.684 2.676 2.676 0 01-.147-.864v-2c0-.327.063-.632.179-.895a1.9 1.9 0 01.474-.685c.21-.21.453-.358.716-.474a2.52 2.52 0 01.863-.147h3.075v12.794h.011zm-3.075-11.373c-.274 0-.453.064-.632.211-.147.116-.211.327-.211.569v2c0 .274.064.474.211.632.179.18.358.242.632.242h1.706v-3.643h-1.706v-.01z" fill="#414141"/><path d="M146.196 90.914H0V95h146.196v-4.086z" fill="#3CB453"/><path fill-rule="evenodd" clip-rule="evenodd" d="M45.941 22.176l-13.467 5.612v-4.39l13.467-5.613 10.056 4.212v4.36l-10.056-4.181z" fill="#3CB453"/><path fill-rule="evenodd" clip-rule="evenodd" d="M45.941 31.316l-13.467 5.601v-4.38l13.467-5.612 10.056 4.212v4.38l-10.056-4.201zm0 9.192l-13.467 5.613V41.73l13.467-5.613 10.056 4.212v4.38l-10.056-4.2z" fill="#3CB453"/><path fill-rule="evenodd" clip-rule="evenodd" d="M23.523 27.283L7.371 34.296v16.09l-5.192 2.147V32.084l21.344-9.192V9.34L45.941 0l10.056 4.18v4.391L45.941 4.36 37.34 7.94l-8.624 3.612v34.443l-5.192 2.148v-20.86z" fill="#3CB453"/><path fill-rule="evenodd" clip-rule="evenodd" d="M45.941 13.847l-13.467 5.612V15.1L45.94 9.488l10.056 4.18v4.392L45.94 13.848zM24.629 39.971v4.233l-13.257 5.528V45.49l13.257-5.518zm0-7.529v4.212l-13.257 5.518V37.97l13.257-5.529z" fill="#3CB453"/><path d="M90.62 65.159v-4.507c0-.78.115-1.854 1.01-1.854.927 0 1.043 1.075 1.043 1.854 0 7.434-7.877 11.667-7.877 16.71v5.792h13.7v-4.18h-7.877c0-4.78 7.877-10.151 7.877-18.059v-1.169c0-3.727-3.286-5.107-6.866-5.107-3.58 0-6.834 1.37-6.834 5.107v5.402h5.823v.01zm10.203 13.435c0 3.728 3.253 5.108 6.834 5.108 3.58 0 6.833-1.37 6.833-5.108V59.757c0-3.728-3.253-5.107-6.833-5.107-3.581 0-6.834 1.369-6.834 5.107v18.837zm7.855-.894c0 .779-.116 1.853-1.011 1.853-.926 0-1.042-1.074-1.042-1.853V60.651c0-.78.116-1.854 1.042-1.854.895 0 1.011 1.075 1.011 1.854v17.047zm8.15.894c0 3.728 3.254 5.108 6.866 5.108 3.58 0 6.833-1.37 6.833-5.108V59.757c0-3.728-3.253-5.107-6.833-5.107-3.612 0-6.866 1.369-6.866 5.107v18.837zm7.876-.894c0 .779-.115 1.853-1.01 1.853-.927 0-1.043-1.074-1.043-1.853V60.651c0-.78.116-1.854 1.043-1.854.895 0 1.01 1.075 1.01 1.854v17.047zm8.15.894c0 3.728 3.254 5.108 6.834 5.108 3.58 0 6.866-1.37 6.866-5.108V59.757c0-3.728-3.286-5.107-6.866-5.107-3.58 0-6.834 1.369-6.834 5.107v18.837zm7.877-.894c0 .779-.116 1.853-1.043 1.853-.895 0-1.011-1.074-1.011-1.853V60.651c0-.78.116-1.854 1.011-1.854.927 0 1.043 1.075 1.043 1.854v17.047z" fill="#3CB453"/></svg>