<svg width="104" height="14" fill="none" xmlns="http://www.w3.org/2000/svg"><path d="M46.218 12.303a4.909 4.909 0 01-.41.349 6.777 6.777 0 01-1.406-1.304l2.223-2.13.014.025a4.094 4.094 0 001.312 1.414l-1.733 1.646zM42.926 7c0 1.145.235 2.195.705 3.148l2.516-2.411a5.316 5.316 0 01-.05-.737c0-.838.18-1.586.541-2.243a3.953 3.953 0 011.528-1.528c.645-.374 1.367-.56 2.166-.56h.064c.142-.164.304-.337.504-.537.732-.731 1.758-1.176 2.774-1.446C52.667.23 51.553 0 50.332 0c-1.405 0-2.675.303-3.81.909a6.81 6.81 0 00-2.649 2.514c-.631 1.057-.947 2.25-.947 3.577zm13.859-3.554c-.26 1.103-.717 2.254-1.517 3.054-.269.268-.49.47-.703.643-.02.78-.207 1.48-.56 2.1a3.956 3.956 0 01-1.507 1.547c-.645.361-1.367.542-2.166.542-.334 0-.653-.032-.96-.095l-2.19 2.08a5.84 5.84 0 01-.063.06c.978.415 2.05.623 3.213.623 1.405 0 2.668-.303 3.79-.909a6.856 6.856 0 002.65-2.494c.644-1.07.966-2.27.966-3.597 0-1.318-.318-2.503-.953-3.554z" fill="#4C4C4C"/><path fill-rule="evenodd" clip-rule="evenodd" d="M38.51 9.417l2.358 3.379-1.015.972h-1.672l-2.61-3.77H32.69v3.77h-3.133V.232h5.86c1.198 0 2.236.2 3.112.6.89.4 1.573.966 2.05 1.701.477.735.716 1.605.716 2.61 0 1.006-.245 1.876-.735 2.611-.477.722-1.16 1.276-2.05 1.663zm-.387-4.273c0-.76-.245-1.341-.734-1.74-.49-.413-1.206-.62-2.147-.62H32.69v4.719h2.552c.941 0 1.657-.207 2.147-.619.49-.413.734-.993.734-1.74zM4.409 10.867h6.284l1.2 2.901h3.287L9.127.232H6.033L0 13.768h3.21l1.199-2.9zm3.152-7.56l2.146 5.182H5.414l2.147-5.182z" fill="#4C4C4C"/><path d="M27.065 13.768v-2.514h-7.368V8.122h6.285V5.685h-6.285v-2.94h7.116V.233h-10.23v13.536h10.482zM65.023 8.45l-1.817 1.895v3.423h-3.114V.232h3.114v6.323L69.2.232h3.48l-5.607 6.033 5.936 7.503h-3.654L65.023 8.45z" fill="#4C4C4C"/><path fill-rule="evenodd" clip-rule="evenodd" d="M76.661 13.091c1.134.606 2.404.909 3.81.909 1.404 0 2.668-.303 3.79-.909a6.856 6.856 0 002.649-2.494c.644-1.07.966-2.27.966-3.597 0-1.328-.322-2.52-.966-3.577A6.81 6.81 0 0084.26.909C83.14.303 81.875 0 80.47 0c-1.405 0-2.675.303-3.809.909a6.81 6.81 0 00-2.65 2.514c-.63 1.057-.947 2.25-.947 3.577 0 1.328.316 2.527.948 3.597a6.856 6.856 0 002.649 2.494zm5.975-2.3c-.644.36-1.366.54-2.166.54-.799 0-1.52-.18-2.165-.54a4.095 4.095 0 01-1.528-1.548c-.36-.657-.541-1.405-.541-2.243 0-.838.18-1.586.541-2.243a3.955 3.955 0 011.528-1.528c.644-.374 1.366-.56 2.165-.56.8 0 1.522.186 2.166.56a3.81 3.81 0 011.508 1.528c.374.657.561 1.405.561 2.243 0 .838-.187 1.586-.56 2.243a3.955 3.955 0 01-1.509 1.547zM90.23.232h6.15c1.47 0 2.765.284 3.887.85 1.134.555 2.011 1.342 2.629 2.36.632 1.018.948 2.204.948 3.558 0 1.354-.316 2.54-.948 3.558-.618 1.018-1.495 1.811-2.629 2.379-1.122.554-2.417.831-3.887.831h-6.15V.232zm5.995 10.964c1.354 0 2.43-.374 3.23-1.121.812-.761 1.218-1.786 1.218-3.075 0-1.29-.406-2.308-1.219-3.055-.799-.76-1.875-1.141-3.229-1.141h-2.862v8.392h2.862z" fill="#4C4C4C"/></svg>