<svg width="137" height="67" fill="none" xmlns="http://www.w3.org/2000/svg"><path d="M63.002 38.254c-2.077 2.814-3.484 5.226-4.355 7.17-.47 1.205-.67 1.943-.47 2.278.068.134.202.268.336.268.603.2 1.54-.402 2.814-1.877a30.862 30.862 0 002.278-2.88c.134-.202.268-.202.47-.068.133.134.133.268.066.47a188.155 188.155 0 00-2.21 2.813c-1.207 1.408-2.28 2.145-3.083 2.145-.938 0-1.608-.402-2.01-1.14-.269-.535-.336-1.139-.134-1.809-1.609 2.01-3.016 3.016-4.088 3.016-.871 0-1.541-.402-1.943-1.14-.737-1.407-.536-3.082.536-4.958.737-1.206 1.742-2.278 3.082-3.216 1.34-.938 2.614-1.407 3.686-1.407.804 0 1.407.268 1.608.803.268.47.134 1.073-.335 1.81 1.005-1.206 1.742-1.943 2.211-2.077.47-.201.938-.268 1.541-.201zm-4.49.2c-1.272 0-2.948 1.609-5.092 4.892-1.34 2.077-1.809 3.552-1.407 4.423a.686.686 0 00.402.335c.402.134 1.14-.268 2.144-1.273 1.005-1.006 1.944-2.212 2.815-3.686 1.407-2.412 1.943-3.886 1.742-4.288-.067-.268-.335-.402-.603-.402z" fill="#444"/><path fill-rule="evenodd" clip-rule="evenodd" d="M71.913 35.372s-.134.067-.536.134c-.737.067-1.407.47-2.01 1.072-1.273 1.475-2.412 3.418-3.417 5.83.67-.938 1.474-1.809 2.546-2.747 1.34-1.206 2.412-1.742 3.216-1.742.603 0 1.14.335 1.474 1.072.336.67.47 1.474.403 2.412-.067.938-.335 1.81-.805 2.546-2.01 3.15-4.221 4.69-6.633 4.69-.402 0-.871-.133-1.273-.334a1.582 1.582 0 01-.603-.536c-.135-.201-.135-.335 0-.335.133 0 .268.067.469.268.268.268.603.402.938.402.737.067 1.407-.201 2.077-.871.603-.67 1.541-2.077 2.814-4.222 1.34-2.278 1.81-3.618 1.608-4.154-.067-.134-.268-.268-.469-.268-.737 0-1.876.737-3.417 2.278-1.14 1.206-2.144 2.412-2.948 3.686.067 0 .067.067 0 .067l-.067.067c-.134.2-.201.335-.335.535-2.949 4.96-6.3 14.273-7.907 19.5-.134.536-.335 1.139-.47 1.608-.133.469-.334.67-.602.67-.403 0-.67-.201-.872-.603-.536-1.072 0-3.753 1.743-7.907 2.412-5.763 4.891-11.86 7.907-17.288 1.273-2.345 2.68-4.02 4.087-5.16.737-.603 1.541-.87 2.48-.87.334 0 .602.066.602.2z" fill="#444"/><path d="M76.202 41.203c.67-1.206 1.273-2.01 1.943-2.546.67-.402 1.541-.536 2.747-.536-1.072 1.005-2.278 2.948-3.618 5.83.536-.67 1.541-1.742 3.082-3.284 2.212-2.01 4.02-2.88 5.495-2.747.938.067 1.541.536 1.742 1.206.067.335 0 .536-.268.67-.067 0-.402-.134-1.005-.469-.335-.2-.737-.268-1.14-.335-1.406-.067-2.545.47-3.55 1.541-.335.804-.47 2.145-.201 3.887.133 1.139.401 2.01.67 2.546.268.47.536.737 1.005.737.402 0 1.072-.469 2.077-1.474a81.129 81.129 0 012.278-2.881c.067-.134.201-.134.402-.067.201.134.201.268.134.469a28.765 28.765 0 01-2.345 2.881c-1.407 1.541-2.613 2.211-3.484 2.077-.67-.067-1.207-.536-1.609-1.273-.268-.469-.469-1.139-.603-2.01-.268-1.34-.268-2.48-.067-3.484-.268.268-.737.67-1.273 1.273-.938 1.005-1.608 1.876-1.943 2.479-.536 1.34-.938 2.412-1.072 3.216-.335 0-.67-.335-1.005-.938a1.242 1.242 0 01-.134-.469c-.201-1.541.402-3.618 1.742-6.299z" fill="#444"/><path d="M95.5 38.924c.604 1.206.269 2.948-.937 5.092-1.81 3.083-3.619 4.624-5.361 4.624-1.14 0-1.943-.536-2.48-1.608-.736-1.475-.602-3.15.537-5.026.67-1.206 1.675-2.211 2.948-2.948 1.206-.737 2.278-1.14 3.35-1.14.939 0 1.609.336 1.944 1.006zm-1.34-.536c-1.34 0-2.948 1.675-4.757 4.958-1.206 2.077-1.608 3.552-1.206 4.289.2.402.469.536.938.536 1.072 0 2.613-1.676 4.623-5.093 1.207-2.077 1.609-3.551 1.207-4.356-.268-.2-.47-.334-.804-.334zm13.201-1.541c-.67.134-1.408.2-2.279.2-.268-.133-.335-.334-.201-.401.938.067 1.675-.067 2.145-.335 1.005-.335 2.345-1.675 4.02-4.088.67-.87.938-1.742.804-2.68-.201-.603-.804-.938-1.675-.938-.603 0-1.407.469-2.412 1.407-3.217 3.417-5.897 7.37-8.175 11.726 2.412-2.479 4.355-3.752 5.829-3.752.737 0 1.274.335 1.609 1.005.603 1.206.268 2.814-1.073 4.892-2.01 3.149-4.355 4.757-7.17 4.757-1.273 0-2.21-.469-2.613-1.407-.67-1.34-.134-3.484 1.541-6.5 2.145-3.886 4.825-7.37 7.974-10.252 1.81-1.608 3.351-2.412 4.49-2.412 1.34 0 2.211.536 2.68 1.474.469.871.201 2.077-.804 3.618-1.541 2.212-3.149 3.418-4.69 3.686zm-1.944 1.675c-1.273 0-3.216 1.407-5.896 4.154-.871.939-1.475 1.877-1.81 2.882-.335 1.005-.335 1.742.067 2.144.268.268.536.402.939.402.737 0 1.541-.402 2.345-1.206.536-.603 1.407-1.742 2.613-3.484.536-.805 1.072-1.542 1.608-2.346.737-1.139 1.005-1.876.804-2.278a.893.893 0 00-.67-.268zm5.362 4.692c.938-.737 1.876-1.14 2.881-1.14 1.34.068 1.943.939 1.876 2.748-.402 1.34-1.139 2.412-2.211 3.216-.603.402-1.608.67-3.15.67-1.005 0-1.675-.335-2.01-1.072-.536-1.139-.335-2.613.67-4.422 1.273-2.413 2.547-3.954 3.686-4.69.469-.269 1.139-.403 1.943-.336a346.192 346.192 0 00-3.685 5.026zm-.067.737c-1.073 1.876-1.408 3.15-1.073 3.886.134.268.335.335.603.335 1.14-.134 2.011-.536 2.681-1.139.804-.871 1.273-1.608 1.407-2.345.134-1.206-.201-1.81-1.072-1.81-.469-.133-1.34.269-2.546 1.073zm12.195-5.83c-2.144 2.948-3.619 5.36-4.423 7.304-.469 1.139-.603 1.943-.402 2.345.134.268.335.335.603.335.67 0 1.609-.536 2.681-1.675.938-.938 1.809-2.01 2.546-3.015.201-.134.335-.201.469-.134.201.134.201.268.067.402-.536.938-1.407 2.01-2.546 3.15-1.206 1.205-2.278 1.808-3.284 1.808-1.005 0-1.675-.335-2.01-1.072-.536-1.139-.335-2.613.67-4.422 1.273-2.413 2.547-3.954 3.686-4.69.402-.269 1.072-.403 1.943-.336z" fill="#444"/><path d="M135.437 38.053c-1.943 2.814-3.351 5.293-4.222 7.37-.536 1.274-.67 2.078-.536 2.346.067.134.134.2.335.268.603.2 1.541-.335 2.748-1.742 0-.067.804-1.005 2.345-2.949a.413.413 0 01.469-.067c.201.134.201.268.067.402-.536.805-1.273 1.743-2.278 2.882-1.273 1.407-2.279 2.077-3.016 2.077-.938-.067-1.608-.47-2.01-1.14-.268-.535-.335-1.205-.201-1.942-.201.335-.469.67-.804 1.072-1.273 1.34-2.345 2.077-3.216 2.077s-1.475-.335-1.81-1.005c-.603-1.206-.402-2.68.671-4.557 1.005-1.876 2.278-3.283 3.752-4.355.469-.335 1.206-.47 2.211-.402-2.345 2.747-3.886 5.16-4.69 7.17-.469 1.273-.67 2.01-.536 2.345.067.134.201.268.335.268.67.268 1.608-.335 2.881-1.742.603-.67 1.273-1.742 2.144-3.217 1.273-2.345 2.479-3.886 3.619-4.69.201-.402.871-.536 1.742-.47zm-5.696-4.356c-.067-.2-.067-.268.067-.268s.268.067.469.201c.469.402 1.072 1.072 1.809 2.01 1.676-1.072 3.016-1.809 4.021-2.144.268-.134.469-.134.536.067.268.134.268.268.067.335-1.541 1.072-2.948 2.144-4.155 3.217-.201.2-.335.268-.469.268-.201 0-.335-.134-.536-.47-.402-1.071-1.072-2.144-1.809-3.216zM58.848 19.694c-2.212 2.747-4.624 6.834-7.237 12.329-2.078 4.288-3.686 8.845-4.892 13.67l-.603 2.412c-.2.67-.469 1.005-.804 1.005-.469.067-.871-.268-1.14-.938-.67-1.608.068-5.495 2.212-11.727 1.14-2.814 2.278-5.293 3.485-7.303 3.752-6.433 7.102-10.52 9.984-12.196 1.742-.87 3.283-1.139 4.623-.737a1.6 1.6 0 01.871.47c.268.2.402.401.335.602 0 .134-.2.201-.67.201-.804-.134-1.273-.2-1.407-.2-1.541-.336-3.15.468-4.757 2.412z" fill="#444"/><path d="M54.425 11.116c-8.577-1.809-17.623-2.68-27.071-2.68-4.825 0-8.845.804-12.062 2.345-3.752 1.81-5.427 4.356-5.025 7.64.134 1.071.469 1.875 1.072 2.612-.201.067-.335.201-.536.268-.737-.938-1.14-2.01-1.273-3.149-.47-4.02 1.407-7.103 5.762-9.314 3.418-1.675 7.505-2.546 12.263-2.546 8.242 0 17.556 1.206 27.741 3.618 1.474-1.541 2.881-2.546 4.288-3.015.737-.268 1.14-.268 1.207 0 .067.2-.134.402-.67.603-1.14.402-2.212 1.273-3.217 2.68 5.093.603 18.762 1.273 23.05-2.01 2.413-1.81 3.15-4.356 2.346-5.964-.603-1.206-2.345-2.01-3.15-.603-.602.938.805 2.01 1.207.871-.335-.067 0 .134-.402.134-.67.067-.737-.536-.47-.938.269-.335.805-.469 1.274.134.402.47.2 1.206-.201 1.541-1.273 1.073-2.882-.87-2.211-2.144.87-1.608 3.082-1.474 4.221-.335 2.345 2.412 1.675 6.03-1.474 8.309-5.495 4.02-19.164 2.68-25.195 2.077-2.814 3.887-6.098 9.046-9.85 15.479-.536 1.072-1.14 2.144-1.742 3.283-4.222 8.443-9.314 14.541-15.345 18.36-4.288 2.748-8.778 4.155-13.469 4.289-3.082.134-5.963-.536-8.51-1.876-3.149-1.675-5.226-4.222-6.231-7.773-2.01-7.036 0-13.2 6.164-18.494 1.073-.938 2.48-1.876 4.222-2.881.268-.067.469-.202.67-.336 4.69-2.21 9.582-3.216 14.742-3.082 1.876.067 3.618.402 5.293 1.206 1.81.871 3.15 2.01 4.02 3.418 2.95.134 5.63.87 8.109 2.345l-.335.469c-2.01-1.206-4.49-1.943-7.505-2.211-.201 0-.402-.067-.67-.067h-.134c-6.098 0-11.928 1.742-17.355 5.293-2.211 1.407-4.088 3.217-5.629 5.36-1.943 2.614-2.747 4.96-2.345 7.17.268 1.274.87 2.346 1.943 3.217 1.072.804 2.211 1.273 3.417 1.273 3.485 0 7.505-1.876 11.928-5.561 2.68-2.212 4.824-4.758 6.566-7.64 1.81-3.082 2.48-5.695 2.01-7.772a3.274 3.274 0 00-.267-.737c.2-.067.469-.067.67-.067.134.402.268.67.268.938.536 2.345-.134 5.092-1.876 8.175-1.609 2.814-3.82 5.36-6.634 7.773-4.557 3.685-8.711 5.494-12.464 5.494-1.474 0-2.814-.402-4.02-1.273-1.34-1.005-2.144-2.345-2.48-4.02-.401-2.279.336-4.825 2.346-7.572 1.742-2.48 3.82-4.423 6.232-5.83 3.417-2.077 6.7-3.417 9.716-4.154 2.01-.402 4.49-.67 7.438-.67-1.609-2.48-4.356-3.753-8.175-3.753-6.165 0-12.062 2.345-17.69 7.036-2.882 2.412-4.959 5.227-6.366 8.443-1.407 3.216-1.675 6.098-.871 8.71.938 3.217 2.814 5.496 5.629 6.97 2.21 1.206 4.69 1.742 7.437 1.675 11.995-.268 22.38-15.345 28.479-25.329.335-.469.536-.737.737-1.206l.067.067c2.144-3.752 5.628-8.51 10.386-14.273z" fill="#444"/><path fill-rule="evenodd" clip-rule="evenodd" d="M76.337 23.242c.2-1.474.804-2.881 1.072-4.289.67-3.35.938-2.948-.47-3.35l-1.607 7.237 1.005.402zm3.618-12.263c.603 0 1.005.537 1.005 1.14 0 .402-.268.737-.67.938.536.603 1.944 2.345 2.413 2.613l.268 6.5c.2 1.675.67.335.67 1.675-.268.67-1.81.268-3.016 1.474-.67.67-.938.871-1.742 1.206 1.407 2.48-2.211 2.145-.536-.067-1.474-.804-1.005-.938-1.81-1.876-.67-.67-2.01-.737-2.478-1.474.2-1.273.603-.067 1.005-1.541l1.139-6.5c.804-.536 2.345-1.608 3.216-2.144-.335-.201-.603-.536-.603-1.005.067-.536.603-1.005 1.14-.938zm1.541 12.665c.537 0 .805-.134 1.14-.47l-.603-7.303-1.073.335c.201 2.48.402 4.959.536 7.438zm-4.623-.201c1.675.469 2.345.536 4.087.268l-.335-7.572-2.278-.2c-.469 2.545-1.005 5.025-1.474 7.504z" fill="#444"/><path d="M68.697 52.662h.067v.067l-.603 2.815h.536a.76.76 0 00.536-.201c.134-.134.268-.335.402-.67l.335-.738c.134-.335.268-.603.402-.737a.808.808 0 01.335-.335c.134-.067.201-.134.335-.2.134-.068.269-.068.47-.135h.268l.067.067.067.47v.133s-.067.067-.135.067h-.133c-.135 0-.201.067-.269.067-.067 0-.134.067-.134.067-.067.067-.134.134-.2.268a3.836 3.836 0 01-.269.47l-.268.536a2.33 2.33 0 01-.469.737 1.041 1.041 0 01-.536.402c.134.067.268.2.402.335.067.134.134.335.201.536l.134 1.34c0 .201.067.335.067.402s0 .067.067.134c0 .067.067.067.134.134.067 0 .134.067.201.067h.201c.067 0 .067 0 .134.067v.067l-.2.47c-.068.066-.068.066-.135.066h-.402c-.2-.067-.335-.067-.402-.134a.523.523 0 01-.268-.268c-.067-.067-.067-.134-.134-.201 0-.067-.067-.335-.067-.804l-.067-1.005c-.067-.335-.067-.536-.2-.67-.068-.134-.269-.201-.537-.201h-.536l-.67 3.082c0 .067 0 .067-.067.067h-.67v-.134l.67-3.082h-.536c-.201 0-.402.067-.536.134s-.335.335-.47.67l-.468 1.005c-.201.469-.335.67-.402.804l-.201.201a1.4 1.4 0 01-.402.268 1.263 1.263 0 01-.536.134h-.402l-.068-.067-.066-.2c0-.068 0-.068.066-.135 0 0 .068-.067.135-.067h.2c.068 0 .135 0 .202-.067.067 0 .134-.067.2-.134l.135-.134c.067-.067.134-.201.2-.335l.67-1.34c.135-.201.269-.402.403-.536s.335-.268.603-.335a.807.807 0 01-.335-.335c-.067-.134-.134-.402-.134-.804l-.067-.537c-.067-.402-.067-.603-.067-.603 0-.067 0-.067-.067-.134l-.134-.134c-.067 0-.134-.067-.201-.067h-.134c-.067 0-.067 0-.134-.067v-.134l.2-.469c0-.067.068-.067.068-.067h.201c.2.067.335.067.469.134.067.067.2.134.268.201.067.067.067.201.134.335 0 .134.067.402.067.737l.067.738c0 .402.067.603.2.737.135.134.336.134.537.134h.402l.603-2.815c0-.067 0-.067.067-.067h.604v-.067zm7.706 2.01l-.737 3.485c-.067.134-.067.201-.067.268v.268c0 .067 0 .134.067.201 0 .067 0 .134.067.201 0 .067.067.067.067.134v.067s-.067 0-.067.067l-.402.201c-.067 0-.134 0-.201-.067s-.067-.2-.067-.402v-.402c-.201.335-.47.536-.804.67-.335.134-.603.268-.938.268-.335 0-.603-.067-.804-.268-.201-.2-.268-.469-.268-.737v-.134s.067-.134.134-.402l.67-3.082c0-.067 0-.134.067-.134 0 0 .067 0 .067-.067l.536-.134h.134v.067l-.67 3.149a4.923 4.923 0 01-.134.536v.067c0 .201.067.335.134.402s.2.134.402.134c.134 0 .335-.067.536-.134.2-.067.335-.201.469-.268.2-.134.335-.335.402-.536.134-.201.2-.536.268-.938l.469-2.211c0-.067 0-.134.067-.134 0 0 .067 0 .067-.067l.536-.134c-.134-.068-.067 0 0 .067 0-.067 0-.067 0 0zm4.825.202l-1.005 4.49c0 .066 0 .066-.067.066h-.604v-.134l.871-4.02H79.15v.067c-.134.469-.2.87-.335 1.34-.134.402-.2.737-.268 1.005-.134.335-.268.603-.402.871-.134.201-.268.402-.469.536a1.46 1.46 0 01-.536.335c-.2.067-.335.067-.536.067h-.067l-.067-.067v-.402c0-.067 0-.067.067-.134 0 0 .067-.067.134-.067h.067c.268 0 .402-.134.603-.268.134-.134.268-.402.402-.67.134-.335.268-.737.402-1.273.134-.536.268-1.005.402-1.608l.067-.335c0-.067 0-.067.067-.135 0 0 .067 0 .134-.066h2.413c.067 0 .067 0 .067.066-.067.202-.067.269-.067.336zm3.283-.268c.469 0 .871.134 1.14.469.267.268.401.67.401 1.206 0 .402-.067.737-.134 1.139a5.187 5.187 0 01-.469 1.072c-.268.335-.536.67-.871.871-.335.201-.737.268-1.14.268-.468 0-.87-.134-1.138-.402-.268-.268-.402-.67-.402-1.273 0-.402.067-.871.2-1.206.135-.402.269-.737.47-1.072.268-.335.536-.67.87-.804.336-.201.67-.268 1.073-.268zm.737 1.675c0-.335-.067-.603-.268-.804-.134-.201-.402-.268-.67-.268s-.536.067-.737.2a1.583 1.583 0 00-.536.604c-.134.268-.268.536-.335.87-.067.336-.134.67-.134 1.006 0 .335.067.603.2.804.135.201.336.268.67.268.269 0 .47-.067.67-.201.202-.134.403-.335.537-.603.134-.268.268-.536.335-.938.268-.335.268-.67.268-.938zm5.897-1.608l-.737 3.484c-.067.134-.067.201-.067.268v.268c0 .067 0 .134.067.201 0 .067 0 .134.067.201 0 .067.067.067.067.134v.067s-.067 0-.067.067l-.402.201c-.067 0-.134 0-.201-.067s-.067-.2-.067-.402v-.402a1.57 1.57 0 01-.805.67c-.335.134-.603.268-.938.268-.335 0-.603-.067-.804-.268-.2-.2-.268-.469-.268-.737v-.134s.067-.134.134-.402l.67-3.082c0-.067 0-.134.067-.134 0 0 .067 0 .067-.067l.536-.134h.134v.067l-.67 3.149a4.923 4.923 0 01-.134.536v.067c0 .201.067.335.134.402s.201.134.402.134c.134 0 .335-.067.537-.134.2-.067.334-.201.468-.268.202-.134.336-.335.403-.536.134-.201.2-.536.268-.938l.469-2.211c0-.067 0-.134.067-.134 0 0 .067 0 .067-.067l.536-.134c-.067-.068-.067 0 0 .067 0-.067 0-.067 0 0zm-.536-2.01l.402.066h.067v.067s0 .067-.067.201c-.067.067-.067.134-.134.201-.134.268-.335.402-.603.536a1.784 1.784 0 01-.805.201c-.334 0-.602-.067-.804-.268-.2-.2-.268-.402-.268-.737v-.134c0-.067.067-.067.134-.067l.335-.067h.201v.201c0 .201.068.268.135.402.067.067.2.134.401.134a.608.608 0 00.47-.2c.134-.135.268-.269.335-.537 0-.067 0-.067.067-.067.067.067.067.067.134.067zm4.154 6.767h-.603v-.067l1.005-4.556v-.067s.067 0 .067-.067l.536-.135h.067v.135l-.402 2.01h.603c.134 0 .268-.067.402-.134s.201-.201.268-.402l.201-.536c.134-.335.268-.536.402-.67s.268-.201.47-.268c.067 0 .2-.067.267-.067h.268l.068.067v.536s-.068 0-.135.067h-.133c-.135 0-.269.067-.269.134-.067.067-.133.2-.268.402l-.2.402c-.135.268-.269.402-.336.536-.134.134-.268.2-.469.268.134.067.268.134.335.268s.134.268.134.469l.067.804c0 .134 0 .201.067.268s.134.067.268.134h.201v.134l-.2.47-.068.066h-.402c-.067 0-.134-.067-.2-.067a.523.523 0 01-.269-.268c-.067-.134-.134-.335-.134-.737l-.067-.67c0-.201-.067-.335-.134-.402s-.2-.134-.402-.134h-.67l-.469 2.077s0 .067-.067.067c.268-.067.201-.067.201-.067zm6.634-4.824c.469 0 .871.134 1.139.469.268.268.402.67.402 1.206 0 .402-.067.737-.134 1.139a5.187 5.187 0 01-.469 1.072c-.268.335-.536.67-.871.871-.335.201-.737.268-1.139.268-.47 0-.871-.134-1.14-.402-.267-.268-.401-.67-.401-1.273 0-.402.067-.871.2-1.206.135-.402.269-.737.47-1.072.268-.335.536-.67.871-.804.335-.201.67-.268 1.072-.268zm.737 1.675c0-.335-.067-.603-.268-.804-.134-.201-.402-.268-.67-.268a1.35 1.35 0 00-.737.2 1.586 1.586 0 00-.536.604c-.134.268-.268.536-.335.87-.067.336-.134.67-.134 1.006 0 .335.067.603.2.804.135.201.336.268.671.268.268 0 .469-.067.67-.201.201-.134.402-.335.536-.603.134-.268.268-.536.335-.938.268-.335.268-.67.268-.938zm3.484-1.474l.335 2.144c0 .134.067.268.067.335v.335c0-.067.067-.201.134-.335s.134-.268.201-.335l1.274-2.144.067-.067h.871v.067l-.737 4.556s0 .067-.067.067h-.737v-.067l.603-3.417c0-.134.067-.201.067-.268v-.134c0 .067-.067.067-.067.134s-.067.134-.134.2l-1.408 2.413c0 .067-.067.067-.067.067h-.536v-.067l-.402-2.412v-.335.134s0 .134-.067.268l-.871 3.417s0 .067-.067.067h-.737v-.067l1.273-4.556s0-.067.067-.067h.804c.067 0 .067 0 .134.067 0 0 0-.067 0 0zm7.907 1.273l-.737 3.283c0 .067 0 .067-.067.067h-.67v-.134l.737-3.283c0-.067 0-.134.067-.268v-.201c0-.134-.067-.201-.134-.268s-.201-.067-.335-.134c-.268 0-.469.067-.737.2a1.315 1.315 0 00-.603.604c-.134.134-.201.335-.268.536-.067.2-.134.402-.201.536l-.469 2.144c0 .067 0 .067-.067.067h-.67v-.134l.737-3.283c0-.134.067-.201.067-.335v-.603c-.067-.134-.067-.201-.067-.201v-.067s.067 0 .067-.068l.402-.2h.134s.067.066.067.2c0 .068 0 .135.067.202v.67c.201-.335.469-.603.804-.737a1.89 1.89 0 011.005-.269c.335 0 .536.067.67.202a.85.85 0 01.268.603v.2c0 .269 0 .403-.067.67zm5.093-1.206l-1.005 4.49c0 .066 0 .066-.067.066h-.67v-.134l.871-4.02h-1.273v.067c-.134.469-.201.87-.335 1.34-.134.402-.201.737-.268 1.005-.134.335-.268.603-.403.871-.134.201-.268.402-.469.536a1.459 1.459 0 01-.536.335c-.201.067-.335.067-.536.067h-.067l-.067-.067v-.402c0-.067 0-.067.067-.134 0 0 .067-.067.134-.067h.067c.268 0 .402-.134.603-.268.134-.134.268-.402.402-.67.134-.335.268-.737.402-1.273.135-.536.269-1.005.403-1.608l.067-.335c0-.067 0-.067.067-.135 0 0 .067 0 .134-.066h2.412c.067 0 .067 0 .067.066v.336zm3.953 3.618l.268.335v.067s0 .067-.067.067c-.067.067-.134.067-.201.134a2.477 2.477 0 01-.737.335c-.268.067-.536.134-.804.134s-.536-.067-.67-.134a1.459 1.459 0 01-.536-.335c-.134-.201-.268-.335-.335-.603-.067-.201-.067-.47-.067-.737 0-.938.268-1.675.737-2.278.536-.603 1.139-.938 1.809-.938.402 0 .737.134.938.335.268.2.335.536.402.938 0 .536-.268.938-.737 1.273-.469.335-1.273.469-2.345.469h-.067v.603c0 .134.067.201.067.268a.807.807 0 00.335.335c.134.067.335.134.536.134s.402-.067.67-.134.469-.201.67-.335c.067 0 .067-.067.134-.067h.067c-.134.067-.134.067-.067.134 0-.067-.067-.067 0 0zm-2.412-1.541c.402 0 .737 0 1.072-.067.335-.067.603-.134.804-.268a.807.807 0 00.335-.335c.067-.134.134-.268.134-.402 0-.201-.067-.402-.201-.47-.134-.133-.268-.2-.536-.2-.402 0-.737.134-1.072.469-.201.268-.402.737-.536 1.273zm4.222 2.48h-.604v-.068l1.006-4.556v-.067s.067 0 .067-.067l.536-.135h.067v.135l-.402 2.01h.603c.134 0 .268-.067.402-.134s.201-.201.268-.402l.201-.536c.134-.335.268-.536.402-.67s.268-.201.469-.268c.067 0 .201-.067.268-.067h.268l.067.067v.536s-.067 0-.134.067h-.134c-.134 0-.268.067-.268.134-.067.067-.134.2-.268.402l-.201.402c-.134.268-.268.402-.335.536-.134.134-.268.2-.469.268.134.067.268.134.335.268s.134.268.134.469l.067.804c0 .134 0 .201.067.268s.134.067.268.134h.201v.134l-.201.47-.067.066h-.402c-.067 0-.134-.067-.201-.067a.523.523 0 01-.268-.268c-.067-.134-.134-.335-.134-.737l-.067-.67c0-.201-.067-.335-.134-.402s-.201-.134-.402-.134h-.67l-.47 2.077s0 .067-.067.067c.269-.067.269-.067.202-.067zm7.839-4.356l-.201.335-.067.067h-.134s-.067-.067-.134-.067c-.134-.067-.201-.067-.335-.134-.134 0-.201-.067-.335-.067-.268 0-.536.067-.804.2a1.583 1.583 0 00-.536.604c-.134.268-.268.536-.335.938-.067.335-.134.67-.134 1.005 0 .335.067.536.201.737.134.201.402.268.67.268.134 0 .268 0 .402-.067.134 0 .335-.134.603-.268.067-.067.134-.067.134-.067h.134l.134.335v.134s0 .067-.067.067c0 0-.067.067-.201.134a3.13 3.13 0 01-.67.335c-.201.067-.469.067-.737.067-.536 0-.871-.134-1.139-.469-.201-.268-.335-.67-.335-1.206 0-.938.268-1.742.737-2.412.469-.67 1.139-.938 1.876-.938.134 0 .268 0 .402.067.134 0 .268.067.402.067.134.067.268.134.335.134.067.067.134.067.134.134.067 0 .067 0 0 .067z" fill="#444"/></svg>