<svg width="15" height="14" fill="none" xmlns="http://www.w3.org/2000/svg"><path d="M11.042 0H4.775A3.864 3.864 0 00.908 3.864v6.272A3.87 3.87 0 004.775 14h6.275a3.87 3.87 0 003.866-3.864V3.864A3.882 3.882 0 0011.042 0zm2.624 10.128a2.624 2.624 0 01-2.624 2.623H4.775a2.624 2.624 0 01-2.625-2.623V3.864a2.625 2.625 0 012.625-2.623h6.275a2.624 2.624 0 012.625 2.623l-.009 6.264z" fill="#4C4C4C"/><path d="M7.905 3.392a3.603 3.603 0 00-3.601 3.6 3.612 3.612 0 003.61 3.607 3.606 3.606 0 003.61-3.608 3.617 3.617 0 00-3.619-3.599zm0 5.966c-1.3 0-2.368-1.06-2.368-2.367a2.376 2.376 0 012.368-2.358c1.3 0 2.368 1.06 2.368 2.367a2.365 2.365 0 01-2.368 2.358zm3.759-7.016c-.24 0-.472.1-.646.265a.893.893 0 00-.265.645c0 .24.1.472.265.645a.929.929 0 00.646.265c.24 0 .472-.1.645-.265a.893.893 0 00.265-.645.939.939 0 00-.265-.645.894.894 0 00-.645-.265z" fill="#4C4C4C"/></svg>