<svg width="148" height="72" fill="none" xmlns="http://www.w3.org/2000/svg"><path d="M67.707 41.109c-2.232 3.024-3.744 5.616-4.68 7.704-.505 1.296-.72 2.089-.505 2.449.072.144.216.288.36.288.649.216 1.657-.432 3.025-2.017a33.15 33.15 0 002.448-3.096c.144-.216.288-.216.504-.072.144.144.144.288.072.504a203.275 203.275 0 00-2.376 3.024c-1.296 1.513-2.449 2.305-3.313 2.305-1.008 0-1.728-.432-2.16-1.224-.288-.576-.36-1.225-.144-1.945-1.728 2.16-3.24 3.24-4.392 3.24-.936 0-1.656-.431-2.088-1.223-.792-1.513-.576-3.313.576-5.329.792-1.296 1.872-2.448 3.312-3.456 1.44-1.008 2.808-1.513 3.96-1.513.864 0 1.513.289 1.728.865.288.504.144 1.152-.36 1.944 1.08-1.296 1.873-2.088 2.377-2.232.504-.216 1.008-.288 1.656-.216zm-4.825.216c-1.368 0-3.168 1.728-5.472 5.256-1.44 2.232-1.944 3.816-1.512 4.753a.737.737 0 00.432.36c.432.144 1.224-.288 2.304-1.369 1.08-1.08 2.088-2.376 3.024-3.96 1.512-2.592 2.088-4.176 1.873-4.608-.073-.288-.36-.432-.649-.432z" fill="#fff"/><path fill-rule="evenodd" clip-rule="evenodd" d="M77.28 38.012s-.144.072-.576.144c-.792.072-1.512.505-2.16 1.153-1.369 1.584-2.593 3.672-3.673 6.264.72-1.008 1.584-1.944 2.736-2.952 1.44-1.296 2.593-1.872 3.457-1.872.648 0 1.224.36 1.584 1.152.36.72.504 1.584.432 2.592-.072 1.008-.36 1.944-.864 2.736-2.16 3.385-4.536 5.04-7.129 5.04-.432 0-.936-.143-1.368-.36a1.7 1.7 0 01-.648-.575c-.144-.216-.144-.36 0-.36s.288.072.504.288c.288.288.648.432 1.008.432.792.072 1.512-.216 2.232-.936.648-.72 1.657-2.233 3.025-4.537 1.44-2.448 1.944-3.888 1.728-4.464-.072-.144-.288-.288-.504-.288-.792 0-2.016.792-3.673 2.448-1.224 1.296-2.304 2.592-3.168 3.96.072 0 .072.072 0 .072l-.072.072c-.144.216-.216.36-.36.576-3.168 5.329-6.769 15.338-8.497 20.955-.144.576-.36 1.224-.504 1.728-.144.504-.36.72-.648.72-.432 0-.72-.216-.936-.648-.576-1.152 0-4.033 1.872-8.497 2.592-6.193 5.257-12.745 8.497-18.578 1.368-2.52 2.88-4.32 4.392-5.544.793-.649 1.657-.937 2.665-.937.36 0 .648.072.648.216z" fill="#fff"/><path d="M81.886 44.277c.72-1.297 1.369-2.16 2.089-2.737.72-.432 1.656-.576 2.952-.576-1.152 1.08-2.448 3.169-3.888 6.265.576-.72 1.656-1.872 3.312-3.529 2.376-2.16 4.32-3.096 5.904-2.952 1.009.072 1.657.576 1.873 1.296.072.36 0 .576-.288.72-.072 0-.432-.144-1.08-.504-.36-.216-.793-.288-1.225-.36-1.512-.072-2.736.504-3.816 1.657-.36.864-.504 2.304-.216 4.176.144 1.224.432 2.16.72 2.736.288.504.576.792 1.08.792.432 0 1.152-.504 2.232-1.584a87.266 87.266 0 012.449-3.096c.072-.144.216-.144.432-.072.216.144.216.288.144.504a30.897 30.897 0 01-2.52 3.096c-1.513 1.656-2.809 2.376-3.745 2.232-.72-.072-1.296-.576-1.728-1.368-.288-.504-.504-1.224-.648-2.16-.288-1.44-.288-2.664-.072-3.744-.288.288-.792.72-1.368 1.368-1.008 1.08-1.728 2.016-2.088 2.664-.577 1.44-1.009 2.592-1.153 3.456-.36 0-.72-.36-1.08-1.008-.072-.144-.144-.36-.144-.504-.216-1.656.432-3.888 1.873-6.768z" fill="#fff"/><path d="M102.624 41.829c.648 1.296.288 3.168-1.008 5.472-1.944 3.313-3.888 4.969-5.76 4.969-1.224 0-2.088-.576-2.664-1.729-.793-1.584-.649-3.384.576-5.4.72-1.296 1.8-2.376 3.168-3.168 1.296-.792 2.448-1.224 3.6-1.224 1.008 0 1.728.36 2.088 1.08zm-1.44-.576c-1.44 0-3.168 1.8-5.112 5.328-1.296 2.232-1.728 3.816-1.296 4.609.216.432.504.576 1.008.576 1.152 0 2.808-1.8 4.968-5.473 1.296-2.232 1.728-3.816 1.296-4.68-.288-.216-.504-.36-.864-.36zm14.189-1.657c-.72.145-1.512.217-2.449.217-.288-.145-.36-.36-.216-.433 1.009.072 1.801-.072 2.305-.36 1.08-.36 2.52-1.8 4.32-4.392.72-.936 1.008-1.872.864-2.88-.216-.648-.864-1.008-1.8-1.008-.648 0-1.512.504-2.592 1.512-3.457 3.672-6.337 7.92-8.785 12.601 2.592-2.664 4.68-4.032 6.265-4.032.792 0 1.368.36 1.728 1.08.648 1.296.288 3.024-1.152 5.256-2.161 3.385-4.681 5.113-7.705 5.113-1.368 0-2.376-.504-2.809-1.512-.72-1.44-.144-3.745 1.657-6.985 2.304-4.177 5.184-7.92 8.569-11.017 1.944-1.728 3.6-2.592 4.824-2.592 1.44 0 2.376.576 2.88 1.584.504.936.216 2.232-.864 3.888-1.656 2.376-3.384 3.672-5.04 3.96zm-2.088 1.8c-1.369 0-3.457 1.513-6.337 4.465-.936 1.008-1.584 2.016-1.944 3.097-.36 1.08-.36 1.872.072 2.304.288.288.576.432 1.008.432.792 0 1.656-.432 2.52-1.296.576-.648 1.512-1.873 2.808-3.745.576-.864 1.152-1.656 1.728-2.52.793-1.224 1.081-2.016.865-2.448a.96.96 0 00-.72-.288zm5.758 5.041c1.008-.792 2.016-1.224 3.096-1.224 1.44.072 2.088 1.008 2.016 2.952-.432 1.44-1.224 2.593-2.376 3.457-.648.432-1.728.72-3.384.72-1.08 0-1.8-.36-2.16-1.152-.576-1.224-.36-2.809.72-4.753 1.368-2.592 2.736-4.248 3.96-5.04.504-.288 1.224-.432 2.088-.36a372.694 372.694 0 00-3.96 5.4zm-.072.792c-1.152 2.017-1.512 3.385-1.152 4.177.144.288.36.36.648.36 1.224-.144 2.16-.576 2.88-1.224.864-.937 1.368-1.729 1.512-2.52.144-1.297-.216-1.945-1.152-1.945-.504-.144-1.44.288-2.736 1.152zm13.105-6.264c-2.304 3.168-3.888 5.76-4.752 7.848-.504 1.225-.648 2.089-.432 2.52.144.289.36.36.648.36.72 0 1.728-.575 2.88-1.8 1.008-1.008 1.944-2.16 2.736-3.24.216-.144.36-.216.504-.144.216.144.216.288.072.432-.576 1.008-1.512 2.16-2.736 3.385-1.296 1.296-2.448 1.944-3.528 1.944s-1.8-.36-2.16-1.152c-.576-1.224-.36-2.809.72-4.753 1.368-2.592 2.736-4.248 3.96-5.04.432-.288 1.152-.432 2.088-.36z" fill="#fff"/><path d="M145.542 40.892c-2.089 3.025-3.601 5.689-4.537 7.921-.576 1.368-.72 2.232-.576 2.52.072.144.144.216.36.288.648.216 1.656-.36 2.952-1.872 0-.072.865-1.08 2.521-3.168a.443.443 0 01.504-.072c.216.144.216.288.072.432-.576.864-1.368 1.872-2.449 3.096-1.368 1.512-2.448 2.233-3.24 2.233-1.008-.073-1.728-.505-2.16-1.225-.288-.576-.36-1.296-.216-2.088-.216.36-.504.72-.864 1.152-1.368 1.44-2.52 2.233-3.457 2.233-.936 0-1.584-.36-1.944-1.08-.648-1.297-.432-2.88.72-4.897 1.08-2.016 2.449-3.528 4.033-4.68.504-.36 1.296-.505 2.376-.433-2.52 2.953-4.176 5.545-5.04 7.705-.505 1.368-.721 2.16-.577 2.52.072.144.216.289.36.289.721.288 1.729-.36 3.097-1.873.648-.72 1.368-1.872 2.304-3.456 1.368-2.52 2.664-4.176 3.888-5.04.216-.433.937-.577 1.873-.505zm-6.121-4.68c-.072-.216-.072-.288.072-.288s.288.072.504.216c.504.432 1.152 1.152 1.944 2.16 1.8-1.152 3.241-1.944 4.321-2.304.288-.144.504-.144.576.072.288.144.288.288.072.36-1.656 1.152-3.169 2.304-4.465 3.456-.216.216-.36.288-.504.288-.216 0-.36-.144-.576-.504-.432-1.152-1.152-2.304-1.944-3.456zM63.237 21.163c-2.377 2.952-4.969 7.345-7.777 13.25-2.232 4.608-3.96 9.504-5.257 14.689l-.648 2.592c-.216.72-.504 1.08-.864 1.08-.504.072-.936-.288-1.224-1.008-.72-1.728.072-5.905 2.376-12.601 1.224-3.024 2.449-5.689 3.745-7.849 4.032-6.913 7.633-11.305 10.729-13.105 1.872-.936 3.528-1.224 4.968-.792.36.072.648.216.936.504.288.216.432.432.36.648 0 .144-.216.216-.72.216-.864-.144-1.368-.216-1.512-.216-1.656-.36-3.384.504-5.112 2.592z" fill="#fff"/><path d="M58.486 11.946c-9.217-1.944-18.938-2.88-29.091-2.88-5.185 0-9.505.863-12.962 2.52-4.032 1.944-5.832 4.68-5.4 8.208.144 1.153.504 2.017 1.152 2.809-.216.072-.36.216-.576.288-.792-1.008-1.224-2.16-1.368-3.385-.504-4.32 1.512-7.632 6.192-10.009 3.673-1.8 8.065-2.736 13.178-2.736 8.857 0 18.866 1.296 29.81 3.889 1.585-1.657 3.097-2.737 4.61-3.24.791-.289 1.223-.289 1.295 0 .072.215-.144.431-.72.647-1.224.432-2.376 1.368-3.456 2.88 5.472.649 20.162 1.369 24.77-2.16 2.593-1.944 3.385-4.68 2.52-6.408-.647-1.296-2.52-2.16-3.384-.648-.648 1.008.864 2.16 1.296.936-.36-.072 0 .144-.432.144-.72.072-.792-.576-.504-1.008.288-.36.864-.504 1.368.144.432.504.216 1.296-.216 1.656-1.368 1.152-3.096-.936-2.376-2.304.936-1.729 3.313-1.585 4.537-.36 2.52 2.592 1.8 6.48-1.585 8.928-5.904 4.32-20.594 2.88-27.074 2.233-3.025 4.176-6.553 9.72-10.585 16.633-.576 1.152-1.224 2.305-1.873 3.529-4.536 9.073-10.009 15.625-16.49 19.73-4.608 2.952-9.432 4.464-14.473 4.608-3.312.144-6.408-.576-9.144-2.016-3.385-1.8-5.617-4.536-6.697-8.353-2.16-7.56 0-14.185 6.625-19.874 1.152-1.008 2.664-2.016 4.536-3.096.288-.072.504-.216.72-.36 5.04-2.376 10.297-3.457 15.842-3.313 2.016.073 3.888.433 5.688 1.297 1.944.936 3.384 2.16 4.32 3.672 3.169.144 6.05.936 8.713 2.52l-.36.504c-2.16-1.296-4.824-2.088-8.064-2.376-.216 0-.432-.072-.72-.072h-.144c-6.553 0-12.818 1.872-18.65 5.689-2.377 1.512-4.393 3.456-6.049 5.76-2.088 2.808-2.952 5.329-2.52 7.705.288 1.368.936 2.52 2.088 3.456 1.152.864 2.376 1.368 3.672 1.368 3.745 0 8.065-2.016 12.818-5.976 2.88-2.376 5.184-5.113 7.056-8.209 1.945-3.312 2.665-6.12 2.16-8.353a3.51 3.51 0 00-.287-.792c.216-.072.504-.072.72-.072.144.432.288.72.288 1.008.576 2.52-.144 5.473-2.017 8.785-1.728 3.024-4.104 5.76-7.128 8.353-4.897 3.96-9.361 5.904-13.394 5.904-1.584 0-3.024-.432-4.32-1.368-1.44-1.08-2.304-2.52-2.664-4.32-.432-2.448.36-5.185 2.52-8.137 1.872-2.664 4.104-4.752 6.697-6.264 3.672-2.233 7.2-3.673 10.44-4.465 2.16-.432 4.825-.72 7.994-.72-1.729-2.664-4.681-4.033-8.785-4.033-6.625 0-12.962 2.52-19.01 7.561-3.097 2.593-5.329 5.617-6.841 9.073-1.512 3.456-1.8 6.553-.936 9.361 1.008 3.457 3.024 5.905 6.049 7.489 2.376 1.296 5.04 1.872 7.992 1.8 12.89-.288 24.05-16.49 30.603-27.219.36-.504.576-.792.792-1.296l.072.072c2.305-4.032 6.05-9.145 11.162-15.337z" fill="#fff"/><path fill-rule="evenodd" clip-rule="evenodd" d="M82.03 24.98c.215-1.585.863-3.097 1.151-4.61.72-3.6 1.008-3.168-.504-3.6l-1.728 7.777 1.08.432zm3.888-13.178c.648 0 1.08.576 1.08 1.224 0 .432-.288.792-.72 1.008.576.648 2.088 2.52 2.592 2.808l.288 6.985c.216 1.8.72.36.72 1.8-.288.72-1.944.288-3.24 1.584-.72.72-1.008.936-1.872 1.297 1.512 2.664-2.377 2.304-.577-.072-1.584-.865-1.08-1.009-1.944-2.017-.72-.72-2.16-.792-2.664-1.584.216-1.368.648-.072 1.08-1.656l1.224-6.985c.864-.576 2.52-1.728 3.457-2.304-.36-.216-.648-.576-.648-1.08.072-.576.648-1.08 1.224-1.008zm1.656 13.61c.576 0 .864-.145 1.224-.505l-.648-7.849-1.152.36c.216 2.665.432 5.329.576 7.993zm-4.969-.217c1.8.504 2.52.576 4.393.288l-.36-8.137-2.449-.216c-.503 2.737-1.08 5.4-1.584 8.065z" fill="#fff"/><path d="M73.823 56.59h.072v.072l-.648 3.025h.576a.818.818 0 00.576-.216c.144-.144.288-.36.432-.72l.36-.793c.144-.36.288-.648.432-.792a.867.867 0 01.36-.36c.144-.072.216-.144.36-.216.144-.072.288-.072.504-.144h.288l.072.072.072.504v.144s-.072.072-.144.072h-.144c-.144 0-.216.072-.288.072-.072 0-.144.072-.144.072a.994.994 0 00-.216.288 4.206 4.206 0 01-.288.505l-.288.576c-.144.36-.36.648-.504.792a1.12 1.12 0 01-.576.432c.144.072.288.216.432.36.072.144.144.36.216.576l.144 1.44c0 .216.072.36.072.432 0 .072 0 .072.072.144 0 .072.072.072.144.144.072 0 .144.072.216.072h.216c.072 0 .072 0 .144.072v.072l-.216.504c-.072.072-.072.072-.144.072h-.432c-.216-.072-.36-.072-.432-.144a.562.562 0 01-.288-.288c-.072-.072-.072-.144-.144-.216 0-.072-.072-.36-.072-.864l-.072-1.08c-.072-.36-.072-.576-.216-.72-.072-.144-.288-.216-.576-.216h-.576l-.72 3.312c0 .072 0 .072-.072.072h-.72v-.144l.72-3.312h-.576c-.216 0-.432.072-.576.144-.144.072-.36.36-.504.72l-.505 1.08c-.216.504-.36.72-.432.864l-.216.216a1.505 1.505 0 01-.432.288c-.144.072-.36.144-.576.144h-.432l-.072-.072-.072-.216c0-.072 0-.072.072-.144 0 0 .072-.072.144-.072h.216c.072 0 .144 0 .216-.072.072 0 .144-.072.216-.144l.144-.144c.072-.072.144-.216.216-.36l.72-1.44c.144-.216.288-.432.433-.576.143-.144.36-.288.647-.36a.868.868 0 01-.36-.36c-.072-.144-.144-.432-.144-.864l-.072-.577c-.072-.432-.072-.648-.072-.648 0-.072 0-.072-.072-.144l-.144-.144c-.072 0-.144-.072-.216-.072h-.144c-.072 0-.072 0-.144-.072v-.144l.216-.504c0-.072.072-.072.072-.072h.216c.216.072.36.072.504.144.073.072.217.144.288.216.073.072.073.216.145.36 0 .144.072.432.072.792l.072.792c0 .433.072.649.216.793.144.144.36.144.576.144h.432l.648-3.025c0-.072 0-.072.072-.072h.648v-.072zm8.28 2.16l-.791 3.745c-.072.144-.072.216-.072.288v.288c0 .072 0 .144.072.216 0 .072 0 .144.072.216 0 .072.072.072.072.144v.072s-.072 0-.072.072l-.433.216c-.072 0-.143 0-.215-.072-.073-.072-.073-.216-.073-.432v-.432a1.68 1.68 0 01-.864.72c-.36.144-.648.288-1.008.288s-.648-.072-.864-.288c-.216-.216-.288-.504-.288-.792v-.144s.072-.144.144-.432l.72-3.312c0-.072 0-.144.072-.144 0 0 .072 0 .072-.072l.576-.145h.144v.072l-.72 3.385a5.29 5.29 0 01-.144.576v.072c0 .216.072.36.144.432.072.072.216.144.432.144.144 0 .36-.072.576-.144.216-.072.36-.216.504-.288.216-.144.36-.36.432-.576.145-.216.217-.576.288-1.008l.505-2.377c0-.071 0-.143.072-.143 0 0 .072 0 .072-.073l.576-.144c-.144-.072-.072 0 0 .073 0-.072 0-.072 0 0zm5.185.217l-1.08 4.824c0 .072 0 .072-.072.072h-.648v-.144l.936-4.32h-1.368v.072c-.144.504-.216.936-.36 1.44-.144.432-.216.792-.288 1.08-.144.36-.288.648-.432.936-.144.216-.288.432-.504.576-.144.144-.36.288-.576.36-.216.072-.36.072-.576.072h-.072l-.072-.072v-.432c0-.072 0-.072.072-.144 0 0 .072-.072.144-.072h.072c.288 0 .432-.144.648-.288.144-.144.288-.432.432-.72.144-.36.288-.792.432-1.368.144-.576.288-1.08.432-1.728l.072-.36c0-.072 0-.072.072-.145 0 0 .072 0 .144-.072h2.592c.072 0 .072 0 .072.072-.072.216-.072.288-.072.36zm3.529-.288c.504 0 .936.143 1.224.504.288.288.432.72.432 1.296 0 .432-.072.792-.144 1.224-.144.432-.288.792-.504 1.152-.288.36-.576.72-.936.936-.36.216-.792.288-1.225.288-.504 0-.936-.144-1.224-.432-.288-.288-.432-.72-.432-1.368 0-.432.072-.936.216-1.296.144-.432.288-.792.504-1.152.288-.36.576-.72.936-.864.36-.216.72-.288 1.153-.288zm.792 1.8c0-.36-.072-.648-.288-.864-.144-.216-.433-.288-.72-.288-.288 0-.576.072-.793.216a1.7 1.7 0 00-.576.648c-.144.288-.288.576-.36.936-.072.36-.144.72-.144 1.08 0 .36.072.648.216.864.144.216.36.288.72.288.288 0 .504-.072.72-.216.216-.144.433-.36.577-.648.144-.288.288-.576.36-1.008.288-.36.288-.72.288-1.008zm6.336-1.728l-.792 3.744c-.072.144-.072.216-.072.288v.288c0 .072 0 .144.072.216 0 .072 0 .144.072.216 0 .072.072.072.072.144v.072s-.072 0-.072.072l-.432.216c-.072 0-.144 0-.216-.072-.072-.072-.072-.216-.072-.432v-.432a1.68 1.68 0 01-.864.72c-.36.144-.648.288-1.008.288s-.648-.072-.864-.288c-.216-.216-.288-.504-.288-.792v-.144s.072-.144.144-.432l.72-3.312c0-.072 0-.144.072-.144 0 0 .072 0 .072-.072l.576-.145h.144v.072l-.72 3.385a5.29 5.29 0 01-.144.576v.072c0 .216.072.36.144.432.072.072.216.144.432.144.144 0 .36-.072.576-.144.216-.072.36-.216.504-.288.216-.144.36-.36.432-.576.144-.216.216-.576.288-1.008l.504-2.377c0-.071 0-.143.072-.143 0 0 .072 0 .072-.073l.576-.144c-.072-.072-.072 0 0 .073 0-.072 0-.072 0 0zm-.576-2.16l.432.071h.072v.072s0 .072-.072.216c-.072.072-.072.144-.144.216-.144.288-.36.432-.648.576a1.918 1.918 0 01-.864.216c-.36 0-.648-.072-.864-.288-.216-.216-.288-.432-.288-.792v-.144c0-.072.072-.072.144-.072l.36-.072h.216v.216c0 .216.072.288.144.432.072.072.216.144.432.144s.36-.072.504-.216c.144-.144.288-.288.36-.576 0-.072 0-.072.072-.072.072.072.072.072.144.072zm4.465 7.272h-.648v-.072l1.08-4.896v-.073s.072 0 .072-.072l.576-.144h.072v.145l-.432 2.16h.648c.144 0 .288-.072.432-.144.144-.072.216-.216.288-.432l.216-.576c.144-.36.288-.576.432-.72.144-.145.288-.217.504-.288.072 0 .216-.072.288-.072h.288l.072.072v.576s-.072 0-.144.072h-.144c-.144 0-.288.072-.288.144-.072.072-.144.216-.288.432l-.216.432c-.144.288-.288.432-.36.576-.144.144-.288.216-.504.288.144.072.288.144.36.288.072.144.144.288.144.504l.072.864c0 .144 0 .216.072.288.072.072.144.072.288.144h.216v.144l-.216.504-.072.072h-.432c-.072 0-.144-.072-.216-.072a.562.562 0 01-.288-.288c-.072-.144-.144-.36-.144-.792l-.072-.72c0-.216-.072-.36-.144-.432-.072-.072-.216-.144-.432-.144h-.72l-.504 2.232s0 .072-.072.072c.288-.072.216-.072.216-.072zm7.128-5.184c.504 0 .936.143 1.225.504.288.288.432.72.432 1.296 0 .432-.072.792-.144 1.224a5.574 5.574 0 01-.505 1.152c-.288.36-.576.72-.936.936-.36.216-.792.288-1.224.288-.504 0-.936-.144-1.224-.432-.288-.288-.432-.72-.432-1.368 0-.432.072-.936.216-1.296.144-.432.288-.792.504-1.152.288-.36.576-.72.936-.864.36-.216.72-.288 1.152-.288zm.792 1.8c0-.36-.072-.648-.288-.864-.144-.216-.432-.288-.72-.288s-.576.072-.792.216a1.7 1.7 0 00-.576.648c-.144.288-.288.576-.36.936-.072.36-.144.72-.144 1.08 0 .36.072.648.216.864.144.216.36.288.72.288.288 0 .504-.072.72-.216a1.7 1.7 0 00.576-.648c.144-.288.288-.576.36-1.008.288-.36.288-.72.288-1.008zm3.745-1.584l.36 2.304c0 .144.072.288.072.36v.36c0-.072.072-.216.144-.36s.144-.288.216-.36l1.368-2.304.072-.073h.936v.072l-.792 4.897s0 .072-.072.072h-.792v-.072l.648-3.672c0-.144.072-.216.072-.288v-.144c0 .072-.072.072-.072.144s-.072.144-.144.216l-1.512 2.592c0 .072-.072.072-.072.072h-.576v-.072l-.432-2.592v-.36.144s0 .144-.072.288l-.936 3.672s0 .072-.072.072h-.792v-.072l1.368-4.896s0-.073.072-.073h.864c.072 0 .072 0 .144.072 0-.072 0 0 0 0zm8.497 1.368l-.792 3.528c0 .072 0 .072-.072.072h-.72v-.144l.792-3.528c0-.072 0-.144.072-.288v-.216c0-.144-.072-.216-.144-.288-.072-.072-.216-.072-.36-.144-.288 0-.504.072-.793.216-.288.144-.504.36-.648.648-.144.144-.216.36-.288.576-.072.216-.144.432-.216.576l-.504 2.304c0 .072 0 .072-.072.072h-.72v-.144l.792-3.528c0-.144.072-.216.072-.36v-.648c-.072-.145-.072-.216-.072-.216v-.072s.072 0 .072-.073l.432-.215h.144s.072.072.072.215c0 .072 0 .145.072.216v.721c.216-.36.504-.648.864-.792a2.037 2.037 0 011.081-.288c.36 0 .576.072.72.215.144.145.288.36.288.649v.216c0 .288 0 .432-.072.72zm5.472-1.296l-1.08 4.824c0 .072 0 .072-.072.072h-.72v-.144l.936-4.32h-1.368v.072c-.144.504-.216.936-.36 1.44-.144.432-.216.792-.288 1.08-.144.36-.288.648-.432.936-.144.216-.288.432-.504.576-.144.144-.36.288-.576.36-.216.072-.36.072-.576.072h-.072l-.072-.072v-.432c0-.072 0-.072.072-.144 0 0 .072-.072.144-.072h.072c.288 0 .432-.144.648-.288.144-.144.288-.432.432-.72.144-.36.288-.792.432-1.368.144-.576.288-1.08.432-1.728l.072-.36c0-.072 0-.072.072-.145 0 0 .072 0 .144-.072h2.592c.072 0 .072 0 .072.072v.36zm4.249 3.888l.288.36v.072s0 .072-.072.072c-.072.072-.144.072-.216.144a2.662 2.662 0 01-.792.36c-.288.072-.576.144-.864.144-.289 0-.577-.072-.721-.144a1.568 1.568 0 01-.576-.36c-.144-.216-.288-.36-.36-.648-.072-.216-.072-.504-.072-.792 0-1.008.288-1.8.792-2.448.576-.648 1.225-1.009 1.945-1.009.432 0 .792.145 1.008.36.288.217.36.577.432 1.009 0 .576-.288 1.008-.792 1.368-.504.36-1.368.504-2.521.504h-.072v.648c0 .144.072.216.072.288a.868.868 0 00.36.36c.144.072.36.144.577.144.216 0 .432-.072.72-.144s.504-.216.72-.36c.072 0 .072-.072.144-.072h.072c-.144.072-.144.072-.072.144-.072-.072 0-.072 0 0zm-2.593-1.656c.432 0 .793 0 1.153-.072s.648-.144.864-.288a.868.868 0 00.36-.36c.072-.144.144-.288.144-.432 0-.216-.072-.432-.216-.504-.144-.144-.288-.216-.576-.216-.432 0-.792.144-1.153.504-.216.288-.432.792-.576 1.368zm4.537 2.664h-.648v-.072l1.08-4.896v-.073s.072 0 .072-.072l.576-.144h.072v.145l-.432 2.16h.648c.144 0 .288-.072.432-.144.144-.072.216-.216.288-.432l.216-.576c.144-.36.288-.576.432-.72.144-.145.288-.217.504-.288.072 0 .216-.072.288-.072h.288l.072.072v.576s-.072 0-.144.072h-.144c-.144 0-.288.072-.288.144-.072.072-.144.216-.288.432l-.216.432c-.144.288-.288.432-.36.576-.144.144-.288.216-.504.288.144.072.288.144.36.288.072.144.144.288.144.504l.072.864c0 .144 0 .216.072.288.072.072.144.072.288.144h.216v.144l-.216.504-.072.072h-.432c-.072 0-.144-.072-.216-.072a.562.562 0 01-.288-.288c-.072-.144-.144-.36-.144-.792l-.072-.72c0-.216-.072-.36-.144-.432-.072-.072-.216-.144-.432-.144h-.72l-.504 2.232s0 .072-.072.072c.288-.072.288-.072.216-.072zm8.425-4.68l-.216.36-.072.072h-.144s-.072-.072-.144-.072c-.144-.072-.216-.072-.36-.144-.144 0-.216-.072-.36-.072-.288 0-.576.072-.864.216-.217.144-.433.36-.577.648-.144.288-.288.576-.36 1.008-.072.36-.144.72-.144 1.08 0 .36.072.576.216.792.144.216.432.288.72.288.145 0 .289 0 .433-.072.144 0 .36-.144.648-.288.072-.072.144-.072.144-.072h.144l.144.36v.144s0 .072-.072.072c0 0-.072.072-.216.144a3.363 3.363 0 01-.72.36c-.216.072-.505.072-.793.072-.576 0-.936-.144-1.224-.504-.216-.288-.36-.72-.36-1.296 0-1.008.288-1.872.792-2.592s1.225-1.008 2.017-1.008c.144 0 .288 0 .432.072.144 0 .288.072.432.072.144.072.288.144.36.144.072.072.144.072.144.144.072 0 .072 0 0 .072z" fill="#fff"/></svg>