<svg width="118" height="76" fill="none" xmlns="http://www.w3.org/2000/svg"><path d="M6.638 46.298v8.929h-.05l-2.124-8.93H.311L2.89 54.68.286 66.523h4.178l2.123-10.605h.05v10.605h4.204V55.926h.076l2.123 10.606h4.153l-2.578-11.844 2.553-8.382H13.04l-2.123 8.93h-.076v-8.93H6.638v-.008zm11.894 0v20.225h4.204l2.097-9.603h.026v9.603h3.917V46.298h-4.254l-2.056 9.291h-.025v-9.291h-3.909zm13.588 0v15.137c0 1.365-.455 1.955-1.407 1.955h-.505v3.125h1.027c3.774 0 4.802-2.553 4.802-5.754V49.524h1.483v17h4.228V46.297H32.12zm15.736 10.799h.522c.665 0 .977.312.977 1.264v3.984c0 .952-.312 1.264-.977 1.264h-.522v-6.512zm0-10.8h-4.204v20.226h4.97c2.578 0 4.945-1.002 4.945-4.11v-4.128c0-3.109-2.367-4.111-4.945-4.111h-.766v-7.876zm7.64 0v20.226h7.86V63.61H59.7v-6.9h3.512v-2.89H59.7v-4.633h3.655v-2.89h-7.859zM55.04 19.56h1.12v2.03c0 .236-.05.48-.142.716a1.885 1.885 0 01-.952.978 1.78 1.78 0 01-.691.143h-.741c-.236 0-.48-.05-.691-.143a1.477 1.477 0 01-.548-.405 1.914 1.914 0 01-.404-.573 1.936 1.936 0 01-.118-.716v-6.764c0-.261.025-.505.118-.741.093-.22.236-.405.404-.573.143-.169.337-.312.548-.404.219-.093.455-.144.69-.144h.742c.236 0 .48.05.69.144.22.092.405.235.574.404.168.168.286.362.379.573.092.236.143.48.143.741v1.6h-1.12v-1.6a.706.706 0 00-.194-.505c-.118-.144-.287-.194-.48-.194h-.742c-.194 0-.362.05-.48.194a.692.692 0 00-.194.505v6.756c0 .194.076.362.194.505a.674.674 0 00.48.194h.742a.773.773 0 00.379-.076.625.625 0 00.193-.118c.026-.075.05-.143.05-.235.026-.076.026-.169.026-.262v-2.03h.025zm4.558-5.349v9.098h-1.095V14.21h-1.744v-1.146h4.583v1.146h-1.744zm3.723 0v3.555h1.365a.674.674 0 00.48-.194.786.786 0 00.194-.505v-2.241a.632.632 0 00-.194-.48.775.775 0 00-.48-.143H63.32v.008zm-1.12-1.146h2.485c.236 0 .48.026.69.118.211.093.405.22.573.363.144.168.287.362.362.572.093.22.144.455.144.716v2.241c0 .261-.05.506-.144.716-.075.22-.219.405-.362.573a1.917 1.917 0 01-.573.404 1.779 1.779 0 01-.69.144H63.32v4.397H62.2V13.065zm8.5 1.761a.706.706 0 00-.194-.505c-.118-.144-.287-.194-.48-.194h-.742c-.219 0-.362.05-.505.194-.118.117-.169.286-.169.505v6.756c0 .194.05.362.169.505a.736.736 0 00.505.194h.741a.674.674 0 00.48-.194.786.786 0 00.194-.505v-6.756zm1.103 6.764c0 .236-.05.48-.143.716-.076.22-.22.405-.363.573a1.916 1.916 0 01-.572.405 1.78 1.78 0 01-.691.143h-.741c-.262 0-.48-.05-.691-.143a1.817 1.817 0 01-.573-.405 1.834 1.834 0 01-.522-1.289v-6.764c0-.261.05-.505.143-.741a1.886 1.886 0 01.952-.977c.219-.093.43-.144.69-.144h.742a1.72 1.72 0 011.263.548c.144.168.287.362.363.573.092.236.143.48.143.741v6.764zm5.18 1.719v-7.16l-2.527 6.73v.43h-1.095V13.065h1.095v7.119l2.528-6.714v-.405h1.12V23.31h-1.12zm4.819-9.098v9.098h-1.095V14.21h-1.744v-1.146h4.583v1.146h-1.744zm3.707 0v2.864h2.122v1.146H85.51v3.917h2.46v1.17h-3.555V13.066h3.555v1.146h-2.46zm2.864 8.045c.236 0 .455-.025.623-.05a1.48 1.48 0 00.404-.17.5.5 0 00.22-.218.382.382 0 00.075-.22l.337-8.575h4.035v10.269h-1.095v-9.106h-1.836l-.312 7.43c0 .26-.076.505-.194.716a2.074 2.074 0 01-.48.572c-.219.169-.48.287-.766.38-.312.092-.65.117-1.003.117h-.143v-1.145h.135zm11.338-.522c0 .219-.025.43-.118.648-.093.22-.219.405-.362.548-.143.143-.312.286-.505.362a1.64 1.64 0 01-.65.143h-.766c-.236 0-.455-.05-.648-.143-.22-.076-.38-.219-.523-.362a1.996 1.996 0 01-.362-.548 1.954 1.954 0 01-.118-.648V13.04h1.095v3.867c.22-.169.43-.312.649-.455.194-.118.379-.22.573-.312.219-.093.379-.143.547-.143.337 0 .624.118.834.362.236.236.337.522.337.86v4.515h.017zm-1.095-3.993c0-.194 0-.337-.025-.43-.05-.093-.076-.143-.118-.143-.076 0-.194.05-.38.118-.168.092-.361.194-.547.311-.219.144-.48.312-.741.48v3.657c0 .168.05.286.118.379.092.118.236.168.404.168h.767c.143 0 .286-.05.379-.168a.515.515 0 00.143-.38v-3.992zm6.924-4.676V23.31h-1.12v-5.09h-2.03v5.088h-1.12V13.065h1.12v4.01h2.03v-4.01h1.12zm5.257 10.244l-.455-2.485h-2.266l-.43 2.485h-1.12l1.601-9.89c0-.118.075-.219.168-.311.118-.093.219-.144.362-.144h1.095c.144 0 .236.05.363.144.092.092.168.193.168.311l1.651 9.89h-1.137zm-1.457-9.005c0-.05 0-.076-.026-.093-.025-.05-.076-.076-.092-.076h-.051c-.05 0-.076 0-.093.05 0 .051-.025.077-.025.119l-.834 5.349h1.98l-.859-5.35zm7.615 9.005h-1.121V18.27h-.429l-1.744 5.038h-1.146l1.744-5.038a1.224 1.224 0 01-.598-.219 1.885 1.885 0 01-.505-.379 1.837 1.837 0 01-.337-.572 1.629 1.629 0 01-.118-.666v-1.6c0-.262.05-.506.143-.717.093-.219.219-.404.379-.572a2 2 0 01.547-.363c.22-.092.455-.118.691-.118h2.485V23.31h.009zm-2.485-9.098a.772.772 0 00-.48.143.632.632 0 00-.194.48v1.601c0 .219.076.38.194.505a.671.671 0 00.48.194h1.364V14.22h-1.364v-.008zM55.158 27.984c.169-.312.363-.573.548-.792.168-.219.362-.379.522-.505a3.08 3.08 0 01.548-.287c.168-.075.337-.092.522-.117v1.145c-.05 0-.093.025-.169.05-.092 0-.168.051-.26.076-.093.051-.194.093-.287.169a1.38 1.38 0 00-.236.261l-1.592 2.847v.118l2.552 5.585h-1.17l-2.317-5.088h-.69v5.088h-1.096V26.291h1.095v4.01h.691l1.34-2.317zm6.015.076a.706.706 0 00-.194-.505.673.673 0 00-.48-.194h-.741a.736.736 0 00-.506.194c-.118.117-.168.286-.168.505v6.756c0 .219.05.379.168.505a.737.737 0 00.506.194h.741a.674.674 0 00.48-.194.692.692 0 00.194-.505V28.06zm1.103 6.756c0 .261-.05.505-.117.716a2.26 2.26 0 01-.38.573 1.915 1.915 0 01-.572.404 1.779 1.779 0 01-.691.143h-.741c-.261 0-.48-.05-.691-.143a1.814 1.814 0 01-.573-.404 1.835 1.835 0 01-.522-1.29V28.06c0-.261.05-.505.143-.716.093-.236.219-.43.379-.598.16-.169.362-.312.573-.38a1.7 1.7 0 01.69-.142h.742c.236 0 .48.05.69.143.22.075.405.219.573.379.144.168.287.362.38.598.075.219.117.455.117.716v6.756zm8.138-8.525l.379 10.243h-1.12l-.363-9.098h-.118l-1.406 8.98H66.69l-1.382-8.98h-.118l-.379 9.098h-1.095l.379-10.243h2.199l.952 7.43.977-7.43h2.19zm6.234 0v10.243h-1.096v-9.098h-2.03v9.098h-1.12V26.291h4.246zm5.281 10.243l-.454-2.485h-2.267l-.454 2.485h-1.096l1.601-9.89c0-.092.076-.218.168-.286a.502.502 0 01.363-.143h1.095c.118 0 .236.025.362.118a.6.6 0 01.168.312l1.626 9.89H81.93zm-1.457-9.005c0-.05-.025-.076-.025-.093-.05-.05-.076-.075-.093-.075h-.05c-.051 0-.076.025-.093.075 0 .026-.025.076-.025.093l-.834 5.375h1.98l-.86-5.375zm7.809-1.238v10.243h-1.095v-5.088H85.13v5.088h-1.095V26.291h1.095v4.01h2.056v-4.01h1.095zm5.366 10.243v-7.143l-2.527 6.714v.43h-1.095V26.29h1.095v7.143l2.527-6.73v-.405h1.12v10.244h-1.12v-.009zm6.907 0h-1.095v-5.012h-.455l-1.743 5.012h-1.12l1.743-5.037a1.687 1.687 0 01-.623-.194 1.978 1.978 0 01-.506-.404 2.09 2.09 0 01-.337-.548 2.125 2.125 0 01-.118-.69V28.06c0-.261.051-.505.144-.716.092-.22.219-.405.379-.548a1.84 1.84 0 01.573-.379 2.01 2.01 0 01.69-.118h2.46v10.235h.008zm-2.46-9.098a.72.72 0 00-.505.169c-.118.093-.168.261-.168.455v1.6c0 .22.05.38.168.506.144.143.287.194.506.194h1.364v-2.915h-1.364v-.009z" fill="#fff"/><path d="M116.957 72.731H0V76h116.957v-3.269z" fill="#3CB453"/><path fill-rule="evenodd" clip-rule="evenodd" d="M36.753 17.74L25.98 22.23v-3.512l10.774-4.49 8.045 3.37v3.487l-8.045-3.344z" fill="#3CB453"/><path fill-rule="evenodd" clip-rule="evenodd" d="M36.753 25.052L25.98 29.534V26.03l10.774-4.49 8.045 3.37v3.504l-8.045-3.362zm0 7.355l-10.774 4.49v-3.513l10.774-4.49 8.045 3.37v3.504l-8.045-3.361z" fill="#3CB453"/><path fill-rule="evenodd" clip-rule="evenodd" d="M18.819 21.826l-12.922 5.61v12.872l-4.153 1.719v-16.36l17.075-7.354V7.473L36.753 0l8.045 3.344v3.513l-8.045-3.37-6.882 2.865-6.9 2.889v27.554l-4.152 1.719V21.826z" fill="#3CB453"/><path fill-rule="evenodd" clip-rule="evenodd" d="M36.753 11.077l-10.774 4.49V12.08l10.774-4.49 8.045 3.344v3.513l-8.045-3.37zm-17.05 20.9v3.386L9.098 39.786V36.39l10.605-4.414zm0-6.023v3.37L9.098 33.736v-3.36l10.605-4.423z" fill="#3CB453"/><path d="M72.496 52.127V48.52c0-.623.092-1.482.808-1.482.742 0 .834.859.834 1.482 0 5.948-6.3 9.334-6.3 13.369v4.633h10.959V63.18h-6.301c0-3.825 6.3-8.12 6.3-14.447v-.935c0-2.982-2.628-4.086-5.492-4.086s-5.467 1.096-5.467 4.086v4.321h4.659v.009zm8.162 10.749c0 2.982 2.603 4.085 5.467 4.085 2.864 0 5.467-1.095 5.467-4.085v-15.07c0-2.983-2.603-4.086-5.467-4.086-2.864 0-5.467 1.095-5.467 4.085v15.07zm6.284-.716c0 .623-.092 1.482-.808 1.482-.742 0-.834-.859-.834-1.482V48.52c0-.623.092-1.482.834-1.482.716 0 .808.859.808 1.482v13.64zm6.52.716c0 2.982 2.603 4.085 5.493 4.085 2.864 0 5.467-1.095 5.467-4.085v-15.07c0-2.983-2.603-4.086-5.467-4.086-2.89 0-5.492 1.095-5.492 4.085v15.07zm6.301-.716c0 .623-.092 1.482-.808 1.482-.742 0-.834-.859-.834-1.482V48.52c0-.623.093-1.482.834-1.482.716 0 .808.859.808 1.482v13.64zm6.521.716c0 2.982 2.603 4.085 5.467 4.085 2.864 0 5.492-1.095 5.492-4.085v-15.07c0-2.983-2.628-4.086-5.492-4.086s-5.467 1.095-5.467 4.085v15.07zm6.301-.716c0 .623-.093 1.482-.834 1.482-.716 0-.809-.859-.809-1.482V48.52c0-.623.093-1.482.809-1.482.741 0 .834.859.834 1.482v13.64z" fill="#3CB453"/></svg>