<svg width="21" height="23" fill="none" xmlns="http://www.w3.org/2000/svg"><path d="M9.494 13.882h2.422c.555 0 .556-.893 0-.893H9.494c-1.169 0-2.12-.982-2.12-2.19 0-1.207.951-2.189 2.12-2.189h3.561a.427.427 0 00.35-.185l.007-.006c.612-.52 1.227-1.043 1.75-1.66.522-.615.951-1.334 1.132-2.131.187-.822.082-1.714-.234-2.488-.26-.638-.663-1.225-1.229-1.608a3.124 3.124 0 00-2.157-.504c-.917.125-1.768.672-2.303 1.452-.535.78-.752 1.78-.615 2.725.129.89.555 1.713 1.106 2.412.314.398.668.76 1.041 1.1h-2.41C7.85 7.717 6.512 9.1 6.512 10.8c0 1.7 1.338 3.083 2.983 3.083zm1.192-9.359c-.313-1.068.064-2.393.877-3.082a2.31 2.31 0 012.99-.003l.009.006c.83.707 1.195 2.127.83 3.234-.385 1.17-1.391 2.083-2.331 2.887-.995-.859-2.03-1.864-2.375-3.042z" fill="#fff"/><path d="M16.947 12.989h-1.589c-.554 0-.555.893 0 .893h1.589c1.29 0 2.34 1.085 2.34 2.418 0 1.334-1.05 2.42-2.34 2.42h-4.042c-.199-.943-1.012-1.65-1.982-1.65h-.77l-.394-.44a5.134 5.134 0 00-3.812-1.72H3.375c-.452 0-.82.38-.82.846v1.313H2.03C.91 17.07 0 18.01 0 19.165c0 .94.61 1.757 1.462 2.013.164.884.918 1.553 1.82 1.553.874 0 1.608-.627 1.804-1.47h2.856c.195.843.93 1.47 1.803 1.47.912 0 1.67-.682 1.825-1.579a2.073 2.073 0 001.335-1.54h4.042c1.767 0 3.205-1.486 3.205-3.312 0-1.826-1.438-3.311-3.205-3.311zM3.42 15.802h2.527c1.127 0 2.215.46 3.02 1.267H3.42v-1.267zm-.137 6.037c-.547 0-.991-.46-.991-1.024 0-.564.444-1.023.99-1.023.547 0 .991.459.991 1.023 0 .565-.444 1.024-.99 1.024zm6.462 0c-.546 0-.99-.46-.99-1.024 0-.564.444-1.023.99-1.023s.99.459.99 1.023c0 .565-.444 1.024-.99 1.024zm1.76-1.63c-.247-.76-.942-1.31-1.76-1.31-.874 0-1.608.628-1.803 1.47H5.086c-.195-.842-.93-1.47-1.803-1.47-.83 0-1.535.566-1.77 1.345a1.213 1.213 0 01-.649-1.079c0-.663.523-1.203 1.165-1.203h8.895c.641 0 1.164.54 1.164 1.203 0 .441-.231.834-.584 1.044zm3.2-16.759c0-.937-.738-1.7-1.645-1.7s-1.645.763-1.645 1.7c0 .938.738 1.701 1.645 1.701s1.645-.763 1.645-1.7zm-2.426 0c0-.444.35-.806.781-.806.43 0 .781.362.781.807 0 .445-.35.807-.78.807a.795.795 0 01-.782-.807z" fill="#fff"/><path d="M13.357 13.12a.462.462 0 000 .63.427.427 0 00.611 0 .462.462 0 00.013-.616.426.426 0 00-.624-.015c.08-.083-.08.083 0 0zm-3.611 7.249a.445.445 0 00-.433.447c0 .242.198.447.433.447a.443.443 0 00.43-.428.445.445 0 00-.43-.466zm-6.463 0a.445.445 0 00-.432.447c0 .242.197.447.432.447a.443.443 0 00.43-.428.445.445 0 00-.43-.466z" fill="#fff"/></svg>