<svg width="22" height="21" fill="none" xmlns="http://www.w3.org/2000/svg"><path d="M12.441 16.024H5.114a.523.523 0 00-.523.523v3.663c0 .29.234.523.523.523h7.327a.523.523 0 00.523-.523v-3.663a.523.523 0 00-.523-.523zm9.036 0H14.15a.523.523 0 00-.523.523v3.663c0 .29.234.523.523.523h7.327A.523.523 0 0022 20.21v-3.663a.523.523 0 00-.523-.523zM5.114 10.05h7.327a.523.523 0 00.523-.523V5.865a.523.523 0 00-.523-.523H5.114a.523.523 0 00-.523.523v3.663c0 .288.234.522.523.522zm16.363-4.71H14.15a.523.523 0 00-.523.524v3.663c0 .29.234.523.523.523h7.327A.523.523 0 0022 9.527V5.864a.523.523 0 00-.523-.523zM9.52 4.71h7.326a.523.523 0 00.523-.523V.523A.523.523 0 0016.846 0H9.52a.523.523 0 00-.523.523v3.664c0 .289.234.523.523.523zm-.372 6.495v3.664c0 .289.235.523.523.523H17a.523.523 0 00.523-.523v-3.664a.523.523 0 00-.523-.523H9.67a.522.522 0 00-.523.523zm-.775 3.664v-3.664a.523.523 0 00-.523-.523H.523a.523.523 0 00-.523.523v3.664c0 .289.234.523.523.523H7.85a.523.523 0 00.523-.523z" fill="#fff"/></svg>