<svg width="22" height="13" fill="none" xmlns="http://www.w3.org/2000/svg"><path d="M18.369 7.955c.708.695 1.459 1.34 2.09 2.104.28.337.547.688.75 1.08.288.562.028 1.172-.47 1.207h-3.107c-.8.063-1.445-.26-1.978-.807-.427-.442-.827-.905-1.24-1.36a3.167 3.167 0 00-.562-.498c-.428-.274-.793-.19-1.038.252-.245.449-.302.947-.33 1.452-.035.73-.252.926-.989.96-1.57.078-3.064-.16-4.446-.953-1.22-.701-2.167-1.683-2.995-2.805C2.441 6.405 1.214 4.014.106 1.559-.14 1.005.043.71.653.696a73.396 73.396 0 013.044 0c.413.007.687.246.841.632.547 1.346 1.22 2.637 2.062 3.822.225.316.456.631.779.856.357.245.638.168.806-.239a2.82 2.82 0 00.182-.8c.078-.94.092-1.872-.049-2.812-.084-.582-.413-.96-.996-1.073-.294-.056-.252-.168-.112-.337.253-.294.484-.476.954-.476h3.514c.554.112.673.357.75.911v3.907c-.007.217.105.855.498.996.309.098.52-.148.702-.344.841-.89 1.444-1.95 1.977-3.044.239-.484.442-.982.639-1.48.147-.371.378-.554.792-.547h3.38c.099 0 .204 0 .302.021.568.099.73.344.547.898-.28.877-.813 1.6-1.346 2.336-.561.778-1.165 1.536-1.726 2.321-.498.73-.463 1.087.176 1.711z" fill="#4C4C4C"/></svg>