<svg width="13" height="17" fill="none" xmlns="http://www.w3.org/2000/svg"><path d="M11.188.519H1.812c-.86 0-1.561.795-1.561 1.773v12.063c0 .978.7 1.773 1.562 1.773h9.374c.862 0 1.562-.795 1.562-1.773V2.292c0-.978-.7-1.773-1.562-1.773zm-8.125 1.42H9.94c.516 0 .938.48.938 1.065s-.422 1.064-.938 1.064H3.063c-.515 0-.937-.48-.937-1.064 0-.59.419-1.065.937-1.065zm0 12.06c-.515 0-.937-.479-.937-1.064 0-.585.422-1.064.937-1.064.516 0 .938.479.938 1.064 0 .585-.422 1.064-.938 1.064zm6.874 0c-.516 0-.938-.479-.938-1.064 0-.585.422-1.064.938-1.064.515 0 .937.479.937 1.064 0 .585-.419 1.064-.937 1.064zM11.5 9.39c0 .586-.422 1.065-.938 1.065H2.438c-.516 0-.938-.48-.938-1.065V5.841c0-.586.422-1.065.938-1.065h8.123c.516 0 .938.48.938 1.065l.003 3.548z" fill="#000"/></svg>