<svg width="17" height="18" fill="none" xmlns="http://www.w3.org/2000/svg"><path d="M8.06 16.111c0 .87-.62 1.574-1.385 1.574-.766 0-1.386-.705-1.386-1.574 0-.869.62-1.573 1.386-1.573.765 0 1.386.704 1.386 1.573zm4.227-1.573c-.766 0-1.386.704-1.386 1.573 0 .87.62 1.574 1.386 1.574.765 0 1.386-.705 1.386-1.574 0-.869-.62-1.573-1.386-1.573zm4.301-7.387l-1.705 5.755s-.141.854-.86.854h-8.61c-.86 0-.895-1.07-.895-1.07s-.916-7.708-.96-8.173c-.046-.465-.57-.81-.57-.81L.73 2.51C-.505 1.776.057.38.731.7c2.862 1.533 4.191 2.287 4.276 2.89.087.606.237 2.061.237 2.061v.01a.488.488 0 01.03-.01h10.547c1.273.001.767 1.502.767 1.5zm-2.467 3.205H5.756l.172 1.55h7.788l.405-1.55zm.813-3.124H5.412l.183 1.655h8.91l.43-1.655z" fill="#A77AF7"/></svg>