<svg width="18" height="15" fill="none" xmlns="http://www.w3.org/2000/svg"><path d="M15.563 2.418h-.474V.789H2.907v4.39c0 1.322.33 2.61.956 3.72.282.5.616.954.995 1.353h8.283a6.79 6.79 0 00.995-1.353 7.46 7.46 0 00.447-.954h.98C16.906 7.945 18 6.705 18 5.18c0-1.52-1.094-2.761-2.437-2.761zm0 4.314h-.629a7.852 7.852 0 00.155-1.549V3.631h.474c.753 0 1.364.694 1.364 1.549.004.858-.608 1.552-1.364 1.552zm-4.014 4.734H0v.203c0 1.461 1.044 2.647 2.33 2.647h13.34c1.286 0 2.33-1.19 2.33-2.647v-.203h-6.451z" fill="#EBC84A"/></svg>