<svg width="19" height="16" fill="none" xmlns="http://www.w3.org/2000/svg"><path d="M17.671 11.635c-.287.229-.685.457-1.184.673a15.725 15.725 0 01-1.6-3.053c-.307-.806-.601-1.72-.514-2.592.05-.507.399-1.2 1.03-1.076.253.05.449.266.66.399a1.56 1.56 0 001.093.224c.76-1.798.083-3.821-1.043-4.877L15.823 0c-.894.017-1.89.158-2.568.798-.473.444-.693 1.055-.914 1.649-.22.59-.469 1.184-.95 1.607.253.378.398.819.398 1.296 0 1.359-1.196 2.464-2.667 2.464-1.47 0-2.667-1.105-2.667-2.464 0-.1.009-.203.021-.299-2.26-1.038-4.216.806-4.382.935l1.204 1.263c.906-.997 1.978-1.18 2.044-1.184-1.89 1.749-3.012 4.893-3.41 6.16a4.896 4.896 0 01-1.002-.59L0 12.807c.955.764 2.173 1.188 3.34 1.5 1.587.419 3.236.614 4.872.676 1.75.067 3.515-.016 5.243-.299 1.383-.224 2.783-.565 4.046-1.192a6.02 6.02 0 001.1-.685l-.93-1.172zm-8.71 1.87c-1.854-.025-3.727-.216-5.513-.727 1.267-1.944 3.356-3.386 5.749-3.24 2.206.132 4.146 1.545 5.392 3.306.016.025.033.046.05.07-1.849.458-3.776.611-5.679.59z" fill="#EF8044"/></svg>