<svg width="15" height="18" fill="none" xmlns="http://www.w3.org/2000/svg"><path d="M12.872 3.913h-1.369v-.978c0-1.323-.963-2.416-2.128-2.416h-3.75c-1.166 0-2.128 1.093-2.128 2.416v.92H2.128C.963 3.914 0 4.835 0 6.158v8.975c0 1.323.963 2.416 2.128 2.416h10.744c1.165 0 2.128-1.093 2.128-2.416V6.157c0-1.323-.963-2.244-2.128-2.244zm-8.26-.978c0-.575.456-1.15 1.013-1.15h3.75c.507 0 1.014.517 1.014 1.15v.92H4.61v-.92zm6.334 9.378h-2.28V14.9h-2.28v-2.588H4.053V9.09h2.28V6.502h2.28v2.589h2.281l.05 3.222z" fill="#E03021"/></svg>