<svg width="18" height="15" fill="none" xmlns="http://www.w3.org/2000/svg"><path d="M16.893 2.485v10.278c.636-.191 1.107-.85 1.107-1.632V4.114c0-.778-.471-1.437-1.107-1.629zm-2.595-1.36h-.348c-.82 0-1.487.758-1.487 1.688v9.627c0 .93.668 1.688 1.487 1.688h.348c.82 0 1.487-.758 1.487-1.688V2.81c0-.93-.664-1.685-1.487-1.685zm-2.939 4.41H6.645v4.119h4.714V5.535zM0 3.783V10.8c0 .782.471 1.44 1.107 1.632V2.15C.471 2.342 0 3 0 3.783zM4.05.79h-.348c-.823 0-1.487.757-1.487 1.687v9.628c0 .93.668 1.688 1.487 1.688h.348c.82 0 1.487-.758 1.487-1.688V2.477C5.534 1.547 4.87.79 4.05.79z" fill="#75A68A"/></svg>