<svg width="22" height="22" fill="none" xmlns="http://www.w3.org/2000/svg"><path d="M21.633 0h-15.4a.367.367 0 00-.367.366v21.267a.367.367 0 00.367.367h15.4a.367.367 0 00.367-.367V.366A.367.367 0 0021.633 0zm-8.067 21.266H7.7v-17.6h5.866v17.6zm6.6 0H14.3v-17.6h5.867v17.6zm1.1 0H20.9V3.3a.367.367 0 00-.367-.367h-13.2a.367.367 0 00-.367.367v17.966H6.6V.733h14.666v20.533zM4.767 6.966h-4.4A.367.367 0 000 7.333v7.333a.367.367 0 00.367.367h4.4a.367.367 0 00.366-.367V7.333a.367.367 0 00-.366-.367zM4.4 14.3H.733V7.7H4.4v6.6z" fill="#282828"/><path d="M3.982 10.08l-1.1-1.834a.38.38 0 00-.631 0l-1.1 1.833a.367.367 0 00.315.554h2.2a.367.367 0 00.316-.554zM2.115 9.9l.451-.756.451.756h-.902zm.137 3.855a.367.367 0 00.628 0l1.1-1.833a.366.366 0 00-.314-.556h-2.2a.367.367 0 00-.314.556l1.1 1.833zm.767-1.655l-.453.753-.452-.753h.905zM8.434 1.466h.733V2.2h-.733v-.734zm1.466 0h.734V2.2H9.9v-.734zm1.466 0h.734V2.2h-.734v-.734zm1.467 0h.733V2.2h-.733v-.734zm1.467 0h.733V2.2H14.3v-.734zm1.467 0h.733V2.2h-.733v-.734zm1.466 0h.734V2.2h-.734v-.734zm1.467 0h.733V2.2H18.7v-.734z" fill="#282828"/></svg>