<svg width="11" height="15" fill="none" xmlns="http://www.w3.org/2000/svg"><path d="M7.666 7.624h1.12a.768.768 0 00.709-.473.76.76 0 00-.167-.836L7.132 4.119H8.2a.64.64 0 00.589-.393.64.64 0 00-.138-.694L5.805.185A.636.636 0 005.355 0a.636.636 0 00-.452.185L2.06 3.028a.638.638 0 00.448 1.087h1.068L1.381 6.311a.767.767 0 00.541 1.309h1.12L.286 10.383a.98.98 0 00.695 1.672h2.635v2.538c0 .222.182.403.404.403h2.676a.405.405 0 00.403-.403v-2.538h2.636a.98.98 0 00.69-1.672l-2.759-2.76z" fill="#7EBA56"/></svg>