<svg width="33" height="22" viewBox="0 0 33 22" fill="none" xmlns="http://www.w3.org/2000/svg">
<path d="M22.6614 8.29721C21.8099 9.3836 20.8809 10.9999 19.8745 13.1727C19.0745 14.8686 18.4552 16.6704 17.9907 18.5782C17.9133 18.8962 17.8359 19.2141 17.7585 19.5321C17.6811 19.7971 17.5779 19.9296 17.4488 19.9296C17.2682 19.9561 17.1134 19.8236 17.0101 19.5586C16.7521 18.9227 17.0359 17.3858 17.8617 14.9216C18.3004 13.8087 18.7391 12.8283 19.2036 12.0333C20.6487 9.48959 21.9389 7.87325 23.0485 7.21082C23.7195 6.86635 24.313 6.76036 24.8291 6.91935C24.9581 6.94585 25.0613 6.99884 25.1645 7.10483C25.2678 7.18432 25.3194 7.26381 25.2936 7.34331C25.2936 7.3963 25.2161 7.4228 25.0355 7.4228C24.7259 7.3698 24.5452 7.34331 24.4936 7.34331C23.9001 7.21082 23.2808 7.52879 22.6614 8.29721Z" fill="white"/>
<path d="M20.9593 4.90556C17.6563 4.19013 14.1726 3.84567 10.5341 3.84567C8.67614 3.84567 7.12783 4.16364 5.88919 4.77307C4.44411 5.4885 3.79899 6.4954 3.95382 7.79377C4.00543 8.21773 4.13445 8.5357 4.3667 8.82717C4.28928 8.85367 4.23767 8.90666 4.16026 8.93316C3.8764 8.5622 3.72157 8.13824 3.66996 7.68778C3.48933 6.09794 4.21187 4.87906 5.88919 4.00465C7.20525 3.34222 8.77936 2.99775 10.6115 2.99775C13.7855 2.99775 17.3724 3.4747 21.2948 4.42861C21.8625 3.81917 22.4044 3.42171 22.9463 3.23623C23.2302 3.13024 23.385 3.13024 23.4108 3.23623C23.4366 3.31572 23.3592 3.39521 23.1527 3.4747C22.7141 3.63369 22.3012 3.97815 21.9141 4.5346C23.8753 4.77307 29.1395 5.03805 30.791 3.73968C31.72 3.02425 32.0039 2.01735 31.6942 1.38141C31.462 0.904461 30.791 0.586493 30.4814 1.14294C30.2491 1.5139 30.791 1.93786 30.9459 1.4874C30.8168 1.46091 30.9459 1.5404 30.791 1.5404C30.533 1.56689 30.5072 1.32842 30.6104 1.16943C30.7136 1.03695 30.9201 0.983953 31.1007 1.22243C31.2555 1.40791 31.1781 1.69938 31.0233 1.83187C30.533 2.25583 29.9137 1.4874 30.1717 0.983953C30.5072 0.348016 31.3587 0.401011 31.7974 0.851466C32.7006 1.80537 32.4426 3.23623 31.2297 4.13714C29.1137 5.72698 23.8495 5.19703 21.527 4.95856C20.4432 6.4954 19.1788 8.5357 17.7337 11.0794C17.5273 11.5034 17.295 11.9274 17.0628 12.3778C15.437 15.7165 13.4759 18.1277 11.1534 19.6381C9.5019 20.7245 7.77296 21.2809 5.96661 21.3339C4.77958 21.3869 3.66996 21.1219 2.68937 20.592C1.47654 19.9296 0.67658 18.9227 0.289505 17.5183C-0.484645 14.7361 0.289505 12.2983 2.66357 10.205C3.07645 9.83407 3.61835 9.46311 4.28928 9.06565C4.3925 9.03915 4.46992 8.98615 4.54733 8.93316C6.35368 8.05875 8.23745 7.66129 10.2244 7.71428C10.947 7.74078 11.6179 7.87326 12.263 8.19123C12.9598 8.5357 13.4759 8.98615 13.8113 9.5426C14.9468 9.59559 15.979 9.88706 16.9337 10.47L16.8047 10.6555C16.0306 10.1785 15.0758 9.88706 13.9146 9.78108C13.8371 9.78108 13.7597 9.75458 13.6565 9.75458C13.6307 9.75458 13.6307 9.75458 13.6049 9.75458C11.2566 9.75458 9.0116 10.4435 6.92139 11.8479C6.06983 12.4043 5.34729 13.1197 4.75377 13.9677C4.00543 15.0011 3.69577 15.9285 3.8506 16.8029C3.95382 17.3063 4.18606 17.7303 4.59894 18.0747C5.01182 18.3927 5.45051 18.5782 5.915 18.5782C7.25686 18.5782 8.80516 17.8363 10.5083 16.3789C11.5405 15.5045 12.3663 14.4976 13.0372 13.3582C13.7339 12.1393 13.992 11.1059 13.8113 10.2845C13.7855 10.1785 13.7597 10.099 13.7081 9.99305C13.7855 9.96656 13.8887 9.96656 13.9662 9.96656C14.0178 10.1255 14.0694 10.2315 14.0694 10.3375C14.2758 11.2649 14.0178 12.3513 13.3468 13.5702C12.7275 14.6831 11.876 15.69 10.7921 16.6439C9.03741 18.1012 7.43749 18.8167 5.99241 18.8167C5.4247 18.8167 4.9086 18.6577 4.44411 18.3132C3.92801 17.9158 3.61835 17.3858 3.48933 16.7234C3.3345 15.8225 3.61835 14.8156 4.3925 13.7292C5.06343 12.7488 5.86339 11.9804 6.79237 11.4239C8.10842 10.6025 9.37287 10.0725 10.5341 9.78108C11.3082 9.62209 12.263 9.5161 13.3985 9.5161C12.7791 8.5357 11.7211 8.03225 10.2502 8.03225C7.87618 8.03225 5.60534 8.95966 3.43772 10.8145C2.3281 11.7684 1.52815 12.8813 0.98624 14.1531C0.444335 15.425 0.341115 16.5644 0.650775 17.5978C1.01205 18.8697 1.73459 19.7706 2.8184 20.3535C3.66996 20.8305 4.62475 21.0424 5.68275 21.016C10.3019 20.91 14.3016 14.9481 16.6499 11C16.7789 10.8145 16.8563 10.7085 16.9337 10.523L16.9595 10.5495C17.7853 9.06565 19.1272 7.18433 20.9593 4.90556Z" fill="white"/>
</svg>
